<svg width="1019" height="287" viewBox="0 0 1019 287" fill="none" xmlns="http://www.w3.org/2000/svg">
<path d="M275.855 214.746C275.156 211.834 274.236 209.007 273.119 206.277L268.562 197.443C268.399 197.182 268.235 196.928 268.066 196.673C259.467 183.484 245.677 173.984 229.596 171.099C229.583 171.099 229.57 171.099 229.564 171.099C229.27 171.046 228.983 170.994 228.689 170.948C228.65 170.948 228.617 170.935 228.578 170.929C228.31 170.883 228.042 170.844 227.768 170.805C227.703 170.798 227.644 170.785 227.579 170.779C227.337 170.746 227.089 170.707 226.847 170.674C226.756 170.661 226.665 170.655 226.573 170.641C226.358 170.615 226.136 170.589 225.92 170.563C225.803 170.55 225.685 170.537 225.568 170.524C225.372 170.504 225.183 170.485 224.987 170.465C224.837 170.452 224.693 170.439 224.543 170.426C224.379 170.413 224.21 170.393 224.047 170.38C223.864 170.367 223.687 170.354 223.505 170.341C223.367 170.335 223.237 170.322 223.1 170.315C222.878 170.302 222.649 170.289 222.427 170.276C222.336 170.276 222.244 170.263 222.153 170.263C221.866 170.25 221.579 170.237 221.291 170.23C221.259 170.23 221.226 170.23 221.193 170.23C220.547 170.211 219.907 170.198 219.254 170.198C218.392 170.198 217.524 170.237 216.642 170.322C216.629 170.322 216.616 170.322 216.603 170.322C216.44 170.335 216.277 170.354 216.114 170.374C216.094 170.374 216.074 170.374 216.048 170.38C215.892 170.4 215.735 170.413 215.578 170.433C215.552 170.433 215.526 170.439 215.5 170.446C215.35 170.465 215.2 170.485 215.043 170.504C215.01 170.504 214.984 170.511 214.951 170.517C214.801 170.537 214.658 170.563 214.507 170.583C214.475 170.583 214.442 170.596 214.41 170.596C214.259 170.622 214.116 170.641 213.966 170.668C213.933 170.668 213.9 170.681 213.868 170.687C213.724 170.713 213.574 170.739 213.424 170.766C213.384 170.772 213.352 170.779 213.313 170.785C213.169 170.811 213.025 170.844 212.882 170.87C212.843 170.877 212.81 170.883 212.771 170.896C212.627 170.929 212.483 170.955 212.34 170.988C212.301 170.994 212.268 171.007 212.229 171.014C212.085 171.046 211.942 171.079 211.791 171.112C211.752 171.118 211.713 171.131 211.68 171.138C211.537 171.17 211.387 171.21 211.243 171.242C211.204 171.249 211.171 171.262 211.132 171.268C210.988 171.307 210.838 171.34 210.694 171.379C210.655 171.392 210.623 171.399 210.583 171.412C210.433 171.451 210.29 171.49 210.14 171.529C210.1 171.543 210.068 171.549 210.029 171.562C209.878 171.601 209.728 171.647 209.585 171.693C209.552 171.706 209.513 171.712 209.48 171.725C209.33 171.771 209.18 171.817 209.03 171.862C208.997 171.875 208.958 171.882 208.925 171.895C208.775 171.941 208.625 171.986 208.475 172.039C208.442 172.052 208.403 172.058 208.37 172.071C208.22 172.117 208.063 172.169 207.913 172.222C207.88 172.235 207.841 172.248 207.809 172.254C207.658 172.306 207.502 172.359 207.352 172.411C207.319 172.424 207.286 172.437 207.254 172.444C207.097 172.496 206.947 172.548 206.79 172.607C206.757 172.62 206.725 172.633 206.692 172.646C206.535 172.705 206.385 172.757 206.229 172.816C206.196 172.829 206.163 172.842 206.131 172.848C205.974 172.907 205.817 172.966 205.661 173.025C205.628 173.038 205.595 173.051 205.569 173.064C205.412 173.123 205.256 173.188 205.093 173.247C205.06 173.26 205.034 173.273 205.001 173.279C204.844 173.345 204.681 173.403 204.524 173.469C204.498 173.482 204.466 173.495 204.44 173.501C204.276 173.567 204.12 173.632 203.956 173.697C203.93 173.71 203.898 173.723 203.872 173.73C203.708 173.795 203.545 173.867 203.388 173.932C203.362 173.945 203.33 173.958 203.304 173.971C203.14 174.043 202.977 174.115 202.814 174.187C202.788 174.2 202.762 174.213 202.736 174.219C202.572 174.291 202.409 174.363 202.239 174.441C202.213 174.454 202.187 174.468 202.161 174.474C201.998 174.546 201.828 174.624 201.665 174.703C201.639 174.716 201.612 174.729 201.586 174.735C201.423 174.814 201.253 174.892 201.09 174.97C201.064 174.983 201.038 174.996 201.012 175.009C200.842 175.088 200.679 175.166 200.509 175.251C200.483 175.264 200.457 175.277 200.437 175.29C200.268 175.369 200.104 175.453 199.935 175.538C199.908 175.551 199.882 175.564 199.863 175.577C199.693 175.662 199.523 175.747 199.36 175.832C199.34 175.845 199.314 175.858 199.295 175.865C199.125 175.95 198.955 176.035 198.785 176.126C198.759 176.139 198.74 176.152 198.714 176.159C198.544 176.243 198.374 176.335 198.204 176.426C198.185 176.439 198.159 176.446 198.139 176.459C197.969 176.55 197.8 176.642 197.623 176.733C197.604 176.746 197.578 176.759 197.558 176.766C197.388 176.857 197.218 176.949 197.042 177.04C197.023 177.053 196.996 177.066 196.977 177.073C196.807 177.164 196.631 177.262 196.461 177.353C196.441 177.366 196.415 177.38 196.396 177.393C196.226 177.491 196.05 177.582 195.88 177.68C195.86 177.693 195.841 177.706 195.815 177.712C195.645 177.81 195.469 177.908 195.299 178.006C195.279 178.019 195.26 178.032 195.24 178.039C195.07 178.137 194.894 178.235 194.724 178.339C194.705 178.352 194.685 178.365 194.659 178.378C194.489 178.476 194.313 178.581 194.143 178.679C194.124 178.692 194.097 178.705 194.078 178.718C193.908 178.822 193.732 178.92 193.562 179.025C193.543 179.038 193.516 179.051 193.497 179.064C193.327 179.168 193.151 179.273 192.981 179.371C192.961 179.384 192.935 179.397 192.916 179.41C192.746 179.515 192.57 179.619 192.4 179.723C192.38 179.737 192.354 179.75 192.335 179.763C192.165 179.867 191.995 179.972 191.825 180.076C191.799 180.089 191.78 180.102 191.754 180.122C191.584 180.226 191.414 180.331 191.244 180.442L191.172 180.487C191.003 180.592 190.833 180.703 190.67 180.807C190.644 180.827 190.617 180.84 190.591 180.86C190.422 180.964 190.258 181.075 190.089 181.179C190.063 181.199 190.036 181.212 190.01 181.232C189.847 181.336 189.677 181.447 189.514 181.558C189.488 181.578 189.455 181.597 189.429 181.61C189.266 181.721 189.103 181.826 188.933 181.937C188.907 181.956 188.874 181.976 188.848 181.996C188.685 182.107 188.522 182.211 188.358 182.322C188.326 182.342 188.3 182.361 188.267 182.387C188.104 182.498 187.947 182.603 187.784 182.714L187.686 182.779C187.529 182.884 187.366 182.995 187.209 183.106C187.177 183.132 187.137 183.151 187.105 183.177C186.948 183.282 186.791 183.393 186.635 183.504C186.596 183.53 186.563 183.556 186.524 183.582C186.374 183.687 186.217 183.798 186.067 183.902C186.028 183.928 185.988 183.961 185.943 183.987C185.792 184.091 185.642 184.196 185.492 184.307C185.453 184.34 185.407 184.366 185.368 184.398C185.218 184.503 185.074 184.607 184.931 184.712C184.885 184.744 184.839 184.777 184.794 184.81C184.65 184.914 184.506 185.012 184.363 185.117C184.31 185.149 184.265 185.188 184.212 185.221C184.075 185.319 183.938 185.423 183.795 185.521C183.742 185.56 183.684 185.6 183.631 185.639C183.501 185.737 183.364 185.835 183.233 185.933C183.174 185.978 183.116 186.018 183.057 186.063C182.926 186.155 182.802 186.253 182.672 186.351C182.606 186.396 182.548 186.442 182.482 186.494C182.358 186.586 182.234 186.677 182.117 186.768C182.045 186.821 181.979 186.873 181.908 186.925C181.79 187.01 181.679 187.101 181.562 187.186C181.483 187.245 181.411 187.304 181.333 187.356C181.222 187.441 181.111 187.519 181.007 187.604C180.928 187.663 180.843 187.728 180.765 187.787C180.661 187.865 180.556 187.944 180.452 188.022C180.367 188.087 180.282 188.153 180.191 188.218C180.093 188.29 180.001 188.368 179.903 188.44C179.805 188.512 179.714 188.583 179.622 188.662C179.538 188.727 179.453 188.792 179.368 188.864C179.263 188.943 179.159 189.027 179.054 189.106C178.983 189.165 178.904 189.223 178.832 189.282C178.715 189.373 178.604 189.465 178.486 189.55C178.421 189.602 178.356 189.654 178.291 189.706C178.166 189.804 178.042 189.902 177.918 190C177.86 190.046 177.807 190.092 177.749 190.131C177.618 190.235 177.481 190.346 177.35 190.451C177.311 190.483 177.265 190.516 177.226 190.549C177.076 190.666 176.932 190.784 176.782 190.901C176.756 190.921 176.73 190.94 176.704 190.967C176.541 191.097 176.378 191.228 176.221 191.358C176.208 191.365 176.201 191.378 176.188 191.384C175.842 191.665 175.49 191.952 175.143 192.24C166.199 199.605 157.985 207.616 151.632 214.223C151.462 214.4 151.293 214.576 151.129 214.746C148.929 217.044 146.97 219.153 145.292 220.994C143.092 223.41 141.388 225.362 140.272 226.655C139.73 227.288 139.325 227.758 139.077 228.052C138.887 228.274 138.757 228.431 138.757 228.431C138.757 228.431 138.744 228.444 138.731 228.463H138.783C138.829 228.522 138.933 228.646 139.077 228.809C143.099 233.576 188.548 286.67 219.267 286.67C249.987 286.67 277.5 260.593 277.5 228.431C277.5 223.717 276.926 219.133 275.868 214.746H275.855Z" fill="url(#paint0_linear_8373_3746)"/>
<path d="M173.576 20.8311C158.651 -6.9437 118.83 -6.9437 103.904 20.8311L9.32356 196.862C9.19298 197.065 9.04935 197.254 8.92529 197.45L4.36797 206.284C3.24497 209.006 2.33089 211.834 1.63228 214.752C0.574561 219.14 0 223.723 0 228.437C0 260.606 26.0707 286.677 58.2331 286.677C90.3955 286.677 134.408 233.582 138.424 228.816C138.561 228.653 138.665 228.529 138.717 228.47C138.737 228.45 138.743 228.437 138.743 228.437C138.743 228.437 138.874 228.28 139.063 228.058C139.312 227.765 139.71 227.294 140.258 226.661C141.368 225.368 143.079 223.416 145.279 221C146.957 219.159 148.916 217.044 151.116 214.752C151.279 214.576 151.449 214.406 151.619 214.23C157.972 207.622 166.185 199.611 175.13 192.246C175.476 191.959 175.822 191.678 176.175 191.391C176.188 191.384 176.194 191.371 176.208 191.365C176.371 191.234 176.527 191.104 176.691 190.973C176.717 190.954 176.743 190.934 176.769 190.908C176.919 190.79 177.063 190.673 177.213 190.555C177.252 190.523 177.298 190.49 177.337 190.457C177.468 190.353 177.605 190.242 177.735 190.137C177.794 190.092 177.846 190.046 177.905 190.007C178.029 189.909 178.153 189.811 178.277 189.713C178.343 189.661 178.408 189.609 178.473 189.556C178.591 189.465 178.702 189.373 178.819 189.289C178.891 189.23 178.969 189.171 179.041 189.112C179.146 189.034 179.25 188.949 179.355 188.871C179.439 188.805 179.524 188.74 179.609 188.668C179.701 188.597 179.799 188.525 179.89 188.446C179.988 188.374 180.079 188.296 180.177 188.224C180.262 188.159 180.347 188.094 180.438 188.028C180.543 187.95 180.647 187.872 180.752 187.793C180.83 187.735 180.915 187.669 180.993 187.611C181.104 187.526 181.215 187.447 181.32 187.363C181.398 187.304 181.47 187.245 181.548 187.193C181.666 187.108 181.777 187.016 181.894 186.932C181.966 186.879 182.031 186.827 182.103 186.775C182.227 186.683 182.351 186.592 182.469 186.501C182.534 186.455 182.593 186.409 182.658 186.357C182.789 186.259 182.913 186.168 183.043 186.07C183.102 186.024 183.161 185.985 183.22 185.939C183.35 185.841 183.487 185.743 183.618 185.645C183.67 185.606 183.729 185.567 183.781 185.528C183.918 185.43 184.055 185.325 184.199 185.227C184.251 185.195 184.297 185.156 184.349 185.123C184.493 185.019 184.637 184.921 184.78 184.816C184.826 184.783 184.872 184.751 184.917 184.718C185.061 184.614 185.211 184.509 185.355 184.405C185.394 184.372 185.44 184.346 185.479 184.313C185.629 184.209 185.779 184.104 185.929 183.993C185.969 183.967 186.008 183.935 186.053 183.909C186.204 183.804 186.36 183.693 186.51 183.589C186.55 183.563 186.582 183.536 186.621 183.51C186.778 183.399 186.935 183.295 187.092 183.184C187.124 183.158 187.163 183.138 187.196 183.112C187.353 183.001 187.516 182.897 187.673 182.786C187.705 182.766 187.738 182.74 187.771 182.72C187.934 182.609 188.09 182.505 188.254 182.394C188.286 182.374 188.312 182.355 188.345 182.329C188.508 182.218 188.672 182.113 188.835 182.002C188.861 181.983 188.894 181.963 188.92 181.943C189.083 181.832 189.246 181.728 189.416 181.617L189.501 181.565C189.664 181.454 189.834 181.349 189.997 181.238C190.023 181.219 190.049 181.206 190.075 181.186C190.245 181.075 190.408 180.971 190.578 180.866C190.604 180.846 190.63 180.833 190.656 180.814C190.826 180.709 190.996 180.598 191.159 180.494L191.231 180.448C191.401 180.344 191.571 180.233 191.74 180.128C191.766 180.115 191.786 180.096 191.812 180.083C191.982 179.978 192.152 179.874 192.321 179.769C192.341 179.756 192.367 179.743 192.387 179.73C192.556 179.626 192.733 179.521 192.902 179.417C192.922 179.404 192.948 179.39 192.968 179.377C193.137 179.273 193.314 179.168 193.484 179.071C193.503 179.057 193.529 179.044 193.549 179.031C193.719 178.927 193.895 178.829 194.065 178.724C194.084 178.711 194.11 178.698 194.13 178.685C194.3 178.581 194.476 178.483 194.646 178.385C194.665 178.372 194.685 178.359 194.711 178.346C194.881 178.248 195.057 178.143 195.227 178.045C195.246 178.032 195.266 178.019 195.286 178.013C195.455 177.915 195.632 177.817 195.801 177.719C195.821 177.706 195.841 177.693 195.867 177.686C196.036 177.588 196.213 177.497 196.382 177.399C196.402 177.386 196.428 177.373 196.448 177.36C196.617 177.262 196.794 177.171 196.964 177.079C196.983 177.066 197.009 177.053 197.029 177.047C197.199 176.955 197.375 176.864 197.545 176.772C197.564 176.759 197.59 176.746 197.61 176.74C197.78 176.648 197.949 176.557 198.126 176.465C198.145 176.452 198.171 176.446 198.191 176.433C198.361 176.341 198.531 176.256 198.7 176.165C198.726 176.152 198.746 176.139 198.772 176.132C198.942 176.048 199.112 175.956 199.281 175.871C199.307 175.858 199.327 175.845 199.347 175.839C199.516 175.754 199.686 175.669 199.849 175.584C199.876 175.571 199.902 175.558 199.921 175.545C200.091 175.46 200.254 175.382 200.424 175.297C200.45 175.284 200.476 175.271 200.496 175.258C200.666 175.179 200.829 175.094 200.999 175.016C201.025 175.003 201.051 174.99 201.077 174.977C201.24 174.898 201.41 174.82 201.573 174.742C201.599 174.729 201.625 174.716 201.651 174.709C201.815 174.631 201.984 174.559 202.148 174.481C202.174 174.468 202.2 174.454 202.226 174.448C202.389 174.376 202.552 174.298 202.722 174.226C202.748 174.213 202.774 174.2 202.801 174.193C202.964 174.121 203.127 174.05 203.29 173.978C203.316 173.965 203.349 173.952 203.375 173.939C203.538 173.867 203.702 173.802 203.858 173.736C203.884 173.723 203.917 173.71 203.943 173.704C204.106 173.638 204.263 173.573 204.426 173.508C204.452 173.495 204.485 173.482 204.511 173.475C204.668 173.41 204.831 173.344 204.988 173.286C205.02 173.273 205.047 173.26 205.079 173.253C205.236 173.188 205.393 173.129 205.556 173.07C205.589 173.057 205.621 173.044 205.647 173.031C205.804 172.972 205.961 172.914 206.117 172.855C206.15 172.842 206.183 172.829 206.215 172.822C206.372 172.763 206.529 172.711 206.679 172.652C206.712 172.639 206.744 172.626 206.777 172.613C206.933 172.561 207.084 172.502 207.24 172.45C207.273 172.437 207.306 172.424 207.338 172.417C207.488 172.365 207.645 172.313 207.795 172.261C207.828 172.248 207.867 172.235 207.9 172.228C208.05 172.176 208.207 172.13 208.357 172.078C208.389 172.065 208.429 172.058 208.461 172.045C208.611 172 208.762 171.947 208.912 171.902C208.944 171.889 208.984 171.882 209.016 171.869C209.166 171.823 209.317 171.778 209.467 171.732C209.499 171.719 209.539 171.712 209.571 171.699C209.721 171.653 209.872 171.614 210.015 171.569C210.054 171.556 210.087 171.549 210.126 171.536C210.276 171.497 210.42 171.458 210.57 171.418C210.609 171.405 210.642 171.399 210.681 171.386C210.831 171.347 210.975 171.307 211.119 171.275C211.158 171.268 211.19 171.255 211.23 171.249C211.373 171.209 211.523 171.177 211.667 171.144C211.706 171.138 211.745 171.125 211.778 171.118C211.922 171.085 212.065 171.053 212.216 171.02C212.255 171.014 212.287 171.001 212.327 170.994C212.47 170.961 212.614 170.929 212.757 170.903C212.797 170.896 212.829 170.89 212.868 170.877C213.012 170.844 213.156 170.818 213.299 170.792C213.339 170.785 213.371 170.779 213.41 170.772C213.561 170.746 213.704 170.72 213.854 170.694C213.887 170.694 213.92 170.681 213.952 170.674C214.102 170.648 214.246 170.622 214.396 170.602C214.429 170.602 214.462 170.589 214.494 170.589C214.644 170.563 214.795 170.544 214.938 170.524C214.971 170.524 214.997 170.517 215.03 170.511C215.18 170.491 215.336 170.472 215.487 170.452C215.513 170.452 215.539 170.446 215.565 170.439C215.722 170.419 215.878 170.4 216.035 170.387C216.055 170.387 216.074 170.387 216.1 170.38C216.264 170.361 216.427 170.348 216.59 170.328C216.603 170.328 216.616 170.328 216.629 170.328C217.511 170.25 218.386 170.204 219.241 170.204C219.887 170.204 220.534 170.217 221.18 170.237C221.213 170.237 221.245 170.237 221.278 170.237C221.565 170.25 221.852 170.256 222.14 170.269C222.231 170.269 222.323 170.282 222.414 170.282C222.636 170.295 222.865 170.308 223.087 170.322C223.224 170.328 223.354 170.341 223.491 170.348C223.674 170.361 223.857 170.374 224.033 170.387C224.196 170.4 224.366 170.413 224.529 170.433C224.68 170.446 224.823 170.459 224.973 170.472C225.169 170.491 225.359 170.511 225.555 170.53C225.672 170.544 225.79 170.557 225.907 170.57C226.129 170.596 226.345 170.622 226.56 170.648C226.651 170.661 226.743 170.668 226.834 170.681C227.082 170.713 227.324 170.746 227.565 170.785C227.631 170.792 227.69 170.805 227.755 170.811C228.023 170.85 228.29 170.89 228.564 170.935C228.604 170.935 228.636 170.948 228.675 170.955C228.969 171.001 229.257 171.053 229.55 171.105C229.563 171.105 229.576 171.105 229.583 171.105C245.671 173.991 259.46 183.484 268.052 196.68L173.576 20.8311Z" fill="url(#paint1_linear_8373_3746)"/>
<path d="M489.859 26.0283H465.799L396.611 206.578H426.155L443.679 158.321H519.299L536.856 206.578H566.276L497.087 26.0283H489.859ZM452.826 133.138L480.816 56.0818H482.096L510.139 133.138H452.833H452.826Z" fill="#121212"/>
<path d="M613.789 77.9023H588.103V206.578H613.789V77.9023Z" fill="#121212"/>
<path d="M690.395 180.52C687.443 177.36 685.968 172.418 685.968 165.68V98.7236H717.262V77.9022H685.968V45.9814H660.158V77.9022H638.469V98.7236H660.158V166.927C660.158 175.819 661.738 183.511 664.898 189.994C668.058 196.477 672.629 201.446 678.61 204.893C684.597 208.341 691.655 210.071 699.803 210.071C705.457 210.071 711.314 209.072 717.379 207.081V183.262C712.894 184.594 708.487 185.26 704.164 185.26C697.929 185.26 693.339 183.68 690.388 180.52H690.395Z" fill="#121212"/>
<path d="M838.566 97.2284H837.6C834.041 90.9474 829.569 85.9331 824.169 82.2049C816.648 77.0078 807.566 74.4092 796.93 74.4092C785.373 74.4092 774.966 77.3603 765.701 83.2626C756.43 89.165 749.163 97.2676 743.881 107.577C738.599 117.886 735.961 129.436 735.961 142.24C735.961 155.044 738.599 166.391 743.881 176.779C749.156 187.173 756.43 195.315 765.701 201.217C774.966 207.12 785.38 210.071 796.93 210.071C807.566 210.071 816.648 207.472 824.169 202.275C829.569 198.547 834.048 193.533 837.606 187.252H838.572V206.578H864.382V77.9023H838.572V97.2284H838.566ZM820.924 180.396C815.068 184.137 808.395 186.005 800.912 186.005C793.43 186.005 786.659 184.131 780.842 180.396C775.025 176.655 770.454 171.438 767.131 164.746C763.808 158.054 762.143 150.552 762.143 142.24C762.143 133.929 763.808 126.218 767.131 119.61C770.454 113.003 775.025 107.825 780.842 104.084C786.659 100.343 793.352 98.4755 800.912 98.4755C808.473 98.4755 815.061 100.349 820.924 104.084C826.781 107.825 831.351 112.996 834.635 119.61C837.919 126.218 839.558 133.765 839.558 142.24C839.558 150.715 837.913 158.262 834.635 164.87C831.351 171.477 826.781 176.655 820.924 180.396Z" fill="#121212"/>
<path d="M993.031 77.9021V96.4839H992.059C988.5 90.4118 984.028 85.5672 978.635 81.9566C971.113 76.9292 962.031 74.4155 951.395 74.4155C939.839 74.4155 929.431 77.2818 920.167 83.0209C910.895 88.76 903.628 96.6537 898.346 106.708C893.064 116.77 890.433 127.948 890.433 140.249C890.433 152.549 893.071 163.734 898.346 173.789C903.622 183.85 910.895 191.744 920.167 197.476C929.431 203.215 939.845 206.081 951.395 206.081C962.031 206.081 971.113 203.568 978.635 198.54C984.015 194.943 988.474 190.098 992.026 184.013H993.038V193.611C993.038 208.739 989.525 220.315 982.507 228.339C975.481 236.357 965.322 240.372 952.022 240.372C943.711 240.372 936.417 238.629 930.143 235.136C923.869 231.643 917.947 225.989 912.377 218.18L893.051 232.518C900.697 243.075 909.341 250.949 918.985 256.147C928.628 261.344 939.806 263.942 952.518 263.942C966.151 263.942 977.93 261.135 987.86 255.526C997.791 249.918 1005.42 241.828 1010.74 231.277C1016.05 220.72 1018.72 208.164 1018.72 193.624V77.9151H993.038L993.031 77.9021ZM975.39 176.903C969.533 180.474 962.86 182.263 955.378 182.263C947.896 182.263 941.125 180.474 935.308 176.903C929.49 173.331 924.92 168.343 921.596 161.938C918.273 155.54 916.608 148.305 916.608 140.242C916.608 132.179 918.267 124.951 921.596 118.546C924.92 112.147 929.49 107.159 935.308 103.581C941.125 100.01 947.817 98.2207 955.378 98.2207C962.939 98.2207 969.527 100.01 975.39 103.581C981.246 107.159 985.817 112.102 989.101 118.422C992.385 124.742 994.024 132.015 994.024 140.242C994.024 148.469 992.378 155.54 989.101 161.938C985.817 168.337 981.246 173.325 975.39 176.903Z" fill="#121212"/>
<path d="M592.653 51.4654C590.198 50.0551 588.246 48.1225 586.796 45.6676C585.34 43.2191 584.616 40.4508 584.616 37.3756C584.616 34.3004 585.34 31.5125 586.796 29.0183C588.252 26.5242 590.205 24.5916 592.653 23.2205C595.101 21.8494 597.87 21.1638 600.945 21.1638C604.02 21.1638 606.821 21.8494 609.361 23.2205C611.894 24.5916 613.846 26.5242 615.218 29.0183C616.589 31.5125 617.274 34.3004 617.274 37.3756C617.274 40.4508 616.589 43.2191 615.218 45.6676C613.846 48.1225 611.894 50.0551 609.361 51.4654C606.828 52.8822 604.02 53.5874 600.945 53.5874C597.87 53.5874 595.108 52.8822 592.653 51.4654Z" fill="#1701FF"/>
<defs>
<linearGradient id="paint0_linear_8373_3746" x1="273.426" y1="293.656" x2="186.883" y2="192.978" gradientUnits="userSpaceOnUse">
<stop stop-color="white"/>
<stop offset="0.51" stop-color="#C3D8F9"/>
<stop offset="1" stop-color="#87B1F3"/>
</linearGradient>
<linearGradient id="paint1_linear_8373_3746" x1="-113.019" y1="252.575" x2="212.934" y2="91.2997" gradientUnits="userSpaceOnUse">
<stop offset="0.1" stop-color="#0000FF"/>
<stop offset="0.2" stop-color="#0D18FE"/>
<stop offset="0.43" stop-color="#2949FC"/>
<stop offset="0.61" stop-color="#3A67FB"/>
<stop offset="0.71" stop-color="#4173FB"/>
<stop offset="0.81" stop-color="#5585F8"/>
<stop offset="1" stop-color="#87B1F3"/>
</linearGradient>
</defs>
</svg>
