<svg width="450" height="127" viewBox="0 0 450 127" fill="none" xmlns="http://www.w3.org/2000/svg">
<path d="M121.854 94.8601C121.545 93.5738 121.139 92.3249 120.645 91.1194L118.632 87.2172C118.56 87.1018 118.488 86.9893 118.413 86.8769C114.615 81.0509 108.524 76.8546 101.42 75.5798C101.414 75.5798 101.408 75.5798 101.406 75.5798C101.276 75.5567 101.149 75.5336 101.019 75.5134C101.002 75.5134 100.987 75.5077 100.97 75.5048C100.852 75.4846 100.734 75.4673 100.612 75.45C100.584 75.4471 100.558 75.4413 100.529 75.4384C100.422 75.424 100.312 75.4067 100.206 75.3923C100.165 75.3865 100.125 75.3836 100.085 75.3779C99.9894 75.3663 99.8914 75.3548 99.7962 75.3433C99.7443 75.3375 99.6924 75.3317 99.6405 75.326C99.5539 75.3173 99.4703 75.3087 99.3838 75.3C99.3174 75.2942 99.254 75.2885 99.1876 75.2827C99.1155 75.2769 99.0406 75.2683 98.9685 75.2625C98.8877 75.2567 98.8098 75.251 98.7291 75.2452C98.6685 75.2423 98.6108 75.2366 98.5503 75.2337C98.4522 75.2279 98.3513 75.2221 98.2532 75.2164C98.2128 75.2164 98.1724 75.2106 98.1321 75.2106C98.0052 75.2048 97.8783 75.1991 97.7514 75.1962C97.7369 75.1962 97.7225 75.1962 97.7081 75.1962C97.4226 75.1875 97.1399 75.1818 96.8515 75.1818C96.4708 75.1818 96.0872 75.1991 95.6979 75.2366C95.6921 75.2366 95.6863 75.2366 95.6806 75.2366C95.6085 75.2423 95.5364 75.251 95.4642 75.2596C95.4556 75.2596 95.447 75.2596 95.4354 75.2625C95.3662 75.2712 95.297 75.2769 95.2278 75.2856C95.2162 75.2856 95.2047 75.2885 95.1931 75.2914C95.1268 75.3 95.0605 75.3087 94.9913 75.3173C94.9768 75.3173 94.9653 75.3202 94.9509 75.3231C94.8845 75.3317 94.8211 75.3433 94.7548 75.3519C94.7403 75.3519 94.7259 75.3577 94.7115 75.3577C94.6452 75.3692 94.5817 75.3779 94.5154 75.3894C94.501 75.3894 94.4865 75.3952 94.4721 75.3981C94.4087 75.4096 94.3423 75.4211 94.276 75.4327C94.2587 75.4356 94.2443 75.4384 94.227 75.4413C94.1635 75.4529 94.1001 75.4673 94.0366 75.4788C94.0193 75.4817 94.0049 75.4846 93.9876 75.4904C93.9241 75.5048 93.8607 75.5163 93.7972 75.5307C93.7799 75.5336 93.7655 75.5394 93.7482 75.5423C93.6848 75.5567 93.6213 75.5711 93.555 75.5855C93.5377 75.5884 93.5204 75.5942 93.5059 75.5971C93.4425 75.6115 93.3762 75.6288 93.3127 75.6432C93.2954 75.6461 93.281 75.6519 93.2637 75.6548C93.2002 75.6721 93.1339 75.6865 93.0704 75.7038C93.0531 75.7096 93.0387 75.7124 93.0214 75.7182C92.9551 75.7355 92.8916 75.7528 92.8253 75.7701C92.808 75.7759 92.7936 75.7788 92.7763 75.7845C92.7099 75.8018 92.6436 75.822 92.5801 75.8422C92.5657 75.848 92.5484 75.8509 92.534 75.8566C92.4677 75.8768 92.4013 75.897 92.335 75.9172C92.3206 75.923 92.3033 75.9259 92.2888 75.9316C92.2225 75.9518 92.1562 75.972 92.0898 75.9951C92.0754 76.0009 92.0581 76.0037 92.0437 76.0095C91.9774 76.0297 91.9081 76.0528 91.8418 76.0758C91.8274 76.0816 91.8101 76.0874 91.7957 76.0903C91.7293 76.1133 91.6601 76.1364 91.5938 76.1595C91.5793 76.1652 91.5649 76.171 91.5505 76.1739C91.4813 76.197 91.415 76.22 91.3457 76.246C91.3313 76.2518 91.3169 76.2575 91.3025 76.2633C91.2333 76.2893 91.1669 76.3123 91.0977 76.3383C91.0833 76.3441 91.0689 76.3498 91.0544 76.3527C90.9852 76.3787 90.916 76.4046 90.8468 76.4306C90.8324 76.4363 90.8179 76.4421 90.8064 76.4479C90.7372 76.4738 90.668 76.5027 90.5959 76.5286C90.5814 76.5344 90.5699 76.5402 90.5555 76.5431C90.4863 76.5719 90.4142 76.5979 90.3449 76.6267C90.3334 76.6325 90.319 76.6382 90.3074 76.6411C90.2353 76.67 90.1661 76.6988 90.094 76.7276C90.0825 76.7334 90.0681 76.7392 90.0565 76.7421C89.9844 76.7709 89.9123 76.8026 89.8431 76.8315C89.8316 76.8372 89.8172 76.843 89.8056 76.8488C89.7335 76.8805 89.6614 76.9122 89.5893 76.944C89.5778 76.9497 89.5662 76.9555 89.5547 76.9584C89.4826 76.9901 89.4105 77.0218 89.3355 77.0564C89.324 77.0622 89.3124 77.068 89.3009 77.0709C89.2288 77.1026 89.1538 77.1372 89.0817 77.1718C89.0702 77.1776 89.0586 77.1833 89.0471 77.1862C88.975 77.2208 88.9 77.2554 88.8279 77.2901C88.8164 77.2958 88.8048 77.3016 88.7933 77.3074C88.7183 77.342 88.6462 77.3766 88.5712 77.4141C88.5597 77.4198 88.5481 77.4256 88.5395 77.4314C88.4645 77.466 88.3924 77.5035 88.3174 77.541C88.3059 77.5467 88.2943 77.5525 88.2857 77.5583C88.2107 77.5958 88.1357 77.6333 88.0636 77.6708C88.055 77.6765 88.0434 77.6823 88.0348 77.6852C87.9598 77.7227 87.8848 77.7602 87.8098 77.8005C87.7983 77.8063 87.7896 77.8121 87.7781 77.815C87.7031 77.8525 87.6281 77.8928 87.5531 77.9332C87.5445 77.939 87.5329 77.9419 87.5243 77.9476C87.4493 77.988 87.3743 78.0284 87.2964 78.0688C87.2878 78.0745 87.2762 78.0803 87.2676 78.0832C87.1926 78.1236 87.1176 78.1639 87.0397 78.2043C87.0311 78.2101 87.0196 78.2159 87.0109 78.2187C86.9359 78.2591 86.8581 78.3024 86.7831 78.3428C86.7744 78.3485 86.7629 78.3543 86.7542 78.3601C86.6792 78.4033 86.6014 78.4437 86.5264 78.487C86.5177 78.4927 86.5091 78.4985 86.4975 78.5014C86.4225 78.5446 86.3447 78.5879 86.2697 78.6312C86.261 78.6369 86.2524 78.6427 86.2437 78.6456C86.1687 78.6888 86.0909 78.7321 86.0159 78.7783C86.0072 78.784 85.9986 78.7898 85.987 78.7956C85.9121 78.8388 85.8342 78.885 85.7592 78.9282C85.7505 78.934 85.739 78.9398 85.7304 78.9455C85.6554 78.9917 85.5775 79.0349 85.5025 79.0811C85.4939 79.0869 85.4823 79.0926 85.4737 79.0984C85.3987 79.1445 85.3208 79.1907 85.2458 79.2339C85.2372 79.2397 85.2256 79.2455 85.217 79.2512C85.142 79.2974 85.0641 79.3435 84.9891 79.3897C84.9805 79.3955 84.969 79.4012 84.9603 79.407C84.8853 79.4531 84.8103 79.4993 84.7353 79.5454C84.7238 79.5512 84.7151 79.557 84.7036 79.5656C84.6286 79.6118 84.5536 79.6579 84.4787 79.7069L84.4469 79.7271C84.3719 79.7733 84.297 79.8223 84.2248 79.8685C84.2133 79.8771 84.2018 79.8829 84.1902 79.8915C84.1153 79.9377 84.0432 79.9867 83.9682 80.0328C83.9566 80.0415 83.9451 80.0473 83.9336 80.0559C83.8615 80.1021 83.7865 80.1511 83.7144 80.2001C83.7028 80.2088 83.6884 80.2174 83.6769 80.2232C83.6048 80.2722 83.5327 80.3184 83.4577 80.3674C83.4461 80.3761 83.4317 80.3847 83.4202 80.3934C83.3481 80.4424 83.276 80.4885 83.2039 80.5376C83.1895 80.5462 83.1779 80.5549 83.1635 80.5664C83.0914 80.6154 83.0222 80.6616 82.9501 80.7106L82.9068 80.7395C82.8376 80.7856 82.7655 80.8346 82.6963 80.8837C82.6819 80.8952 82.6645 80.9039 82.6501 80.9154C82.5809 80.9615 82.5117 81.0106 82.4425 81.0596C82.4252 81.0711 82.4107 81.0827 82.3934 81.0942C82.3271 81.1403 82.2579 81.1894 82.1915 81.2355C82.1742 81.2471 82.1569 81.2615 82.1368 81.273C82.0704 81.3192 82.0041 81.3653 81.9377 81.4143C81.9204 81.4288 81.9003 81.4403 81.8829 81.4547C81.8166 81.5009 81.7532 81.547 81.6897 81.5931C81.6695 81.6076 81.6493 81.622 81.6291 81.6364C81.5657 81.6826 81.5022 81.7258 81.4388 81.772C81.4157 81.7864 81.3955 81.8037 81.3725 81.8181C81.3119 81.8614 81.2513 81.9075 81.1879 81.9508C81.1648 81.9681 81.1388 81.9854 81.1158 82.0027C81.0581 82.046 80.9975 82.0892 80.9398 82.1325C80.9139 82.1527 80.8879 82.17 80.862 82.1902C80.8043 82.2305 80.7495 82.2738 80.6918 82.3171C80.663 82.3373 80.637 82.3574 80.6082 82.3805C80.5534 82.4209 80.4986 82.4613 80.4467 82.5017C80.4149 82.5247 80.3861 82.5478 80.3544 82.5709C80.3025 82.6084 80.2534 82.6487 80.2015 82.6862C80.1669 82.7122 80.1352 82.7381 80.1006 82.7612C80.0515 82.7987 80.0025 82.8333 79.9564 82.8708C79.9218 82.8968 79.8843 82.9256 79.8496 82.9516C79.8035 82.9862 79.7574 83.0208 79.7112 83.0554C79.6737 83.0842 79.6362 83.1131 79.5958 83.1419C79.5526 83.1737 79.5122 83.2083 79.4689 83.24C79.4257 83.2717 79.3853 83.3034 79.3449 83.338C79.3074 83.3669 79.2699 83.3957 79.2324 83.4275C79.1863 83.4621 79.1402 83.4996 79.094 83.5342C79.0623 83.5601 79.0277 83.5861 78.996 83.612C78.944 83.6524 78.895 83.6928 78.8431 83.7303C78.8142 83.7534 78.7854 83.7764 78.7566 83.7995C78.7018 83.8428 78.647 83.886 78.5922 83.9293C78.5662 83.9495 78.5431 83.9697 78.5172 83.987C78.4595 84.0331 78.3989 84.0821 78.3413 84.1283C78.3239 84.1427 78.3038 84.1571 78.2865 84.1715C78.2201 84.2235 78.1567 84.2754 78.0903 84.3273C78.0788 84.3359 78.0673 84.3446 78.0557 84.3561C77.9836 84.4138 77.9115 84.4715 77.8423 84.5292C77.8365 84.5321 77.8336 84.5378 77.8279 84.5407C77.675 84.6647 77.5193 84.7916 77.3664 84.9185C73.4152 88.1718 69.787 91.7106 66.9807 94.6294C66.9057 94.7072 66.8307 94.7851 66.7586 94.8601C65.7867 95.8753 64.9215 96.8069 64.1802 97.6202C63.2083 98.6873 62.4555 99.5497 61.9624 100.121C61.723 100.4 61.5442 100.608 61.4346 100.738C61.3509 100.836 61.2932 100.905 61.2932 100.905C61.2932 100.905 61.2875 100.911 61.2817 100.92H61.3048C61.325 100.946 61.3711 101 61.4346 101.072C63.2112 103.178 83.2875 126.632 96.8573 126.632C110.427 126.632 122.581 115.112 122.581 100.905C122.581 98.8229 122.327 96.7982 121.86 94.8601H121.854Z" fill="url(#paint0_linear_8373_3719)"/>
<path d="M76.6742 9.20177C70.0811 -3.06726 52.4909 -3.06726 45.8978 9.20177L4.11852 86.9604C4.06084 87.0498 3.99739 87.1335 3.94259 87.22L1.92947 91.1222C1.43341 92.3249 1.02963 93.5737 0.721029 94.8629C0.253802 96.801 0 98.8257 0 100.908C0 115.118 11.5163 126.634 25.7234 126.634C39.9306 126.634 59.3724 103.181 61.1462 101.075C61.2067 101.003 61.2529 100.948 61.2759 100.922C61.2846 100.914 61.2875 100.908 61.2875 100.908C61.2875 100.908 61.3452 100.839 61.4288 100.741C61.5384 100.611 61.7143 100.403 61.9566 100.124C62.4469 99.5525 63.2025 98.6901 64.1745 97.623C64.9157 96.8097 65.7809 95.8752 66.7529 94.8629C66.825 94.785 66.9 94.7101 66.975 94.6322C69.7812 91.7135 73.4094 88.1746 77.3607 84.9214C77.5135 84.7945 77.6664 84.6704 77.8221 84.5435C77.8279 84.5407 77.8308 84.5349 77.8365 84.532C77.9086 84.4743 77.9779 84.4166 78.05 84.359C78.0615 84.3503 78.073 84.3417 78.0846 84.3301C78.1509 84.2782 78.2144 84.2263 78.2807 84.1744C78.298 84.16 78.3182 84.1455 78.3355 84.1311C78.3932 84.085 78.4537 84.0359 78.5114 83.9898C78.5374 83.9696 78.5605 83.9494 78.5864 83.9321C78.6412 83.8888 78.696 83.8456 78.7508 83.8023C78.7796 83.7793 78.8085 83.7562 78.8373 83.7331C78.8892 83.6927 78.9383 83.6524 78.9902 83.6149C79.0219 83.5889 79.0565 83.5629 79.0882 83.537C79.1344 83.5024 79.1805 83.4649 79.2267 83.4303C79.2642 83.4014 79.3017 83.3726 79.3392 83.3409C79.3795 83.3091 79.4228 83.2774 79.4632 83.2428C79.5064 83.2111 79.5468 83.1765 79.5901 83.1447C79.6276 83.1159 79.6651 83.0871 79.7054 83.0582C79.7516 83.0236 79.7977 82.989 79.8439 82.9544C79.8785 82.9284 79.916 82.8996 79.9506 82.8736C79.9996 82.8361 80.0487 82.8015 80.0948 82.764C80.1294 82.7381 80.1611 82.7121 80.1957 82.6891C80.2477 82.6516 80.2967 82.6112 80.3486 82.5737C80.3803 82.5506 80.4092 82.5275 80.4409 82.5045C80.4957 82.4641 80.5505 82.4237 80.6024 82.3833C80.6312 82.3632 80.6572 82.343 80.686 82.3199C80.7437 82.2766 80.7985 82.2363 80.8562 82.193C80.8822 82.1728 80.9081 82.1555 80.9341 82.1353C80.9918 82.092 81.0523 82.0488 81.11 82.0055C81.1331 81.9882 81.159 81.9709 81.1821 81.9536C81.2427 81.9103 81.3032 81.8642 81.3667 81.8209C81.3898 81.8065 81.41 81.7892 81.433 81.7748C81.4965 81.7286 81.5599 81.6854 81.6234 81.6392C81.6436 81.6248 81.6638 81.6104 81.6839 81.596C81.7474 81.5498 81.8137 81.5037 81.8772 81.4575C81.8945 81.4431 81.9147 81.4316 81.932 81.4172C81.9983 81.371 82.0647 81.3249 82.131 81.2758C82.1483 81.2643 82.1656 81.2499 82.1858 81.2383C82.2521 81.1922 82.3213 81.1432 82.3877 81.097C82.405 81.0855 82.4194 81.074 82.4367 81.0624C82.5059 81.0134 82.5751 80.9672 82.6444 80.9182C82.6588 80.9067 82.6761 80.898 82.6905 80.8865C82.7597 80.8375 82.8318 80.7913 82.901 80.7423C82.9155 80.7336 82.9299 80.7221 82.9443 80.7134C83.0164 80.6644 83.0856 80.6183 83.1577 80.5692C83.1722 80.5606 83.1837 80.5519 83.1981 80.5404C83.2702 80.4914 83.3423 80.4452 83.4144 80.3962C83.426 80.3875 83.4404 80.3789 83.4519 80.3702C83.524 80.3212 83.5961 80.275 83.6711 80.226L83.7086 80.2029C83.7807 80.1539 83.8557 80.1078 83.9278 80.0587C83.9393 80.0501 83.9509 80.0443 83.9624 80.0357C84.0374 79.9866 84.1095 79.9405 84.1845 79.8943C84.196 79.8857 84.2076 79.8799 84.2191 79.8713C84.2941 79.8251 84.3691 79.7761 84.4412 79.7299L84.4729 79.7098C84.5479 79.6636 84.6229 79.6146 84.6979 79.5684C84.7094 79.5627 84.718 79.554 84.7296 79.5482C84.8046 79.5021 84.8795 79.456 84.9545 79.4098C84.9632 79.4041 84.9747 79.3983 84.9834 79.3925C85.0584 79.3464 85.1362 79.3002 85.2112 79.2541C85.2199 79.2483 85.2314 79.2425 85.2401 79.2368C85.3151 79.1906 85.3929 79.1445 85.4679 79.1012C85.4766 79.0955 85.4881 79.0897 85.4967 79.0839C85.5717 79.0378 85.6496 78.9945 85.7246 78.9484C85.7332 78.9426 85.7448 78.9368 85.7534 78.9311C85.8284 78.8849 85.9063 78.8417 85.9813 78.7984C85.9899 78.7926 85.9986 78.7868 86.0101 78.7811C86.0851 78.7378 86.163 78.6917 86.238 78.6484C86.2466 78.6426 86.2553 78.6369 86.2639 78.634C86.3389 78.5907 86.4168 78.5475 86.4918 78.5042C86.5004 78.4984 86.5091 78.4927 86.5206 78.4898C86.5956 78.4465 86.6735 78.4061 86.7485 78.3629C86.7571 78.3571 86.7686 78.3513 86.7773 78.3456C86.8523 78.3023 86.9302 78.2619 87.0051 78.2216C87.0138 78.2158 87.0253 78.21 87.034 78.2071C87.109 78.1668 87.1868 78.1264 87.2618 78.086C87.2705 78.0802 87.282 78.0745 87.2907 78.0716C87.3657 78.0312 87.4406 77.9908 87.5185 77.9505C87.5272 77.9447 87.5387 77.9418 87.5474 77.936C87.6223 77.8957 87.6973 77.8582 87.7723 77.8178C87.7839 77.812 87.7925 77.8063 87.804 77.8034C87.879 77.7659 87.954 77.7255 88.029 77.688C88.0405 77.6822 88.0492 77.6765 88.0578 77.6736C88.1328 77.6361 88.2078 77.5986 88.2799 77.5611C88.2915 77.5553 88.303 77.5496 88.3117 77.5438C88.3866 77.5063 88.4587 77.4717 88.5337 77.4342C88.5453 77.4284 88.5568 77.4227 88.5655 77.4169C88.6404 77.3823 88.7125 77.3448 88.7875 77.3102C88.7991 77.3044 88.8106 77.2986 88.8221 77.2929C88.8942 77.2583 88.9692 77.2237 89.0413 77.189C89.0529 77.1833 89.0644 77.1775 89.0759 77.1746C89.148 77.14 89.223 77.1083 89.2951 77.0737C89.3067 77.0679 89.3182 77.0621 89.3297 77.0593C89.4018 77.0275 89.474 76.9929 89.5489 76.9612C89.5605 76.9554 89.572 76.9497 89.5835 76.9468C89.6556 76.9151 89.7278 76.8833 89.7999 76.8516C89.8114 76.8458 89.8258 76.8401 89.8373 76.8343C89.9095 76.8026 89.9816 76.7737 90.0508 76.7449C90.0623 76.7391 90.0767 76.7334 90.0883 76.7305C90.1604 76.7016 90.2296 76.6728 90.3017 76.644C90.3132 76.6382 90.3276 76.6324 90.3392 76.6295C90.4084 76.6007 90.4805 76.5718 90.5497 76.5459C90.5641 76.5401 90.5757 76.5344 90.5901 76.5315C90.6593 76.5026 90.7285 76.4767 90.8006 76.4507C90.8151 76.4449 90.8295 76.4392 90.841 76.4334C90.9102 76.4075 90.9795 76.3815 91.0487 76.3555C91.0631 76.3498 91.0775 76.344 91.0919 76.3411C91.1612 76.3152 91.2304 76.2921 91.2967 76.2661C91.3111 76.2604 91.3256 76.2546 91.34 76.2488C91.4092 76.2257 91.4755 76.1998 91.5447 76.1767C91.5592 76.171 91.5736 76.1652 91.588 76.1623C91.6543 76.1392 91.7236 76.1162 91.7899 76.0931C91.8043 76.0873 91.8216 76.0815 91.836 76.0787C91.9024 76.0556 91.9716 76.0354 92.0379 76.0123C92.0523 76.0066 92.0696 76.0037 92.0841 75.9979C92.1504 75.9777 92.2167 75.9546 92.2831 75.9345C92.2975 75.9287 92.3148 75.9258 92.3292 75.92C92.3956 75.8998 92.4619 75.8797 92.5282 75.8595C92.5426 75.8537 92.56 75.8508 92.5744 75.845C92.6407 75.8249 92.707 75.8076 92.7705 75.7874C92.7878 75.7816 92.8022 75.7787 92.8195 75.7729C92.8859 75.7556 92.9493 75.7383 93.0156 75.721C93.033 75.7153 93.0474 75.7124 93.0647 75.7066C93.131 75.6893 93.1945 75.672 93.2579 75.6576C93.2752 75.6547 93.2896 75.6489 93.3069 75.646C93.3704 75.6287 93.4367 75.6143 93.5002 75.5999C93.5175 75.597 93.5348 75.5912 93.5492 75.5884C93.6127 75.5739 93.6761 75.5595 93.7424 75.5451C93.7597 75.5422 93.7742 75.5365 93.7915 75.5336C93.8549 75.5191 93.9184 75.5047 93.9818 75.4932C93.9991 75.4903 94.0135 75.4874 94.0308 75.4817C94.0943 75.4672 94.1578 75.4557 94.2212 75.4442C94.2385 75.4413 94.2529 75.4384 94.2702 75.4355C94.3366 75.424 94.4 75.4124 94.4664 75.4009C94.4808 75.4009 94.4952 75.3951 94.5096 75.3922C94.576 75.3807 94.6394 75.3692 94.7057 75.3605C94.7202 75.3605 94.7346 75.3548 94.749 75.3548C94.8153 75.3432 94.8817 75.3346 94.9451 75.3259C94.9595 75.3259 94.9711 75.323 94.9855 75.3201C95.0518 75.3115 95.121 75.3028 95.1874 75.2942C95.1989 75.2942 95.2105 75.2913 95.222 75.2884C95.2912 75.2798 95.3604 75.2711 95.4296 75.2653C95.4383 75.2653 95.447 75.2653 95.4585 75.2625C95.5306 75.2538 95.6027 75.248 95.6748 75.2394C95.6806 75.2394 95.6863 75.2394 95.6921 75.2394C96.0815 75.2048 96.4679 75.1846 96.8457 75.1846C97.1313 75.1846 97.4168 75.1904 97.7023 75.199C97.7168 75.199 97.7312 75.199 97.7456 75.199C97.8725 75.2048 97.9994 75.2077 98.1263 75.2134C98.1667 75.2134 98.2071 75.2192 98.2474 75.2192C98.3455 75.225 98.4464 75.2307 98.5445 75.2365C98.6051 75.2394 98.6627 75.2451 98.7233 75.248C98.8041 75.2538 98.8848 75.2596 98.9627 75.2653C99.0348 75.2711 99.1098 75.2769 99.1819 75.2855C99.2482 75.2913 99.3117 75.2971 99.378 75.3028C99.4645 75.3115 99.5482 75.3201 99.6347 75.3288C99.6866 75.3346 99.7385 75.3403 99.7904 75.3461C99.8885 75.3576 99.9837 75.3692 100.079 75.3807C100.119 75.3865 100.16 75.3894 100.2 75.3951C100.31 75.4095 100.416 75.424 100.523 75.4413C100.552 75.4442 100.578 75.4499 100.607 75.4528C100.725 75.4701 100.843 75.4874 100.964 75.5076C100.982 75.5076 100.996 75.5134 101.013 75.5163C101.143 75.5365 101.27 75.5595 101.4 75.5826C101.406 75.5826 101.411 75.5826 101.414 75.5826C108.521 76.8574 114.612 81.0509 118.407 86.8797L76.6742 9.20177Z" fill="url(#paint1_linear_8373_3719)"/>
<path d="M216.387 11.4977H205.759L175.196 91.2522H188.246L195.987 69.9356H229.391L237.147 91.2522H250.142L219.579 11.4977H216.387ZM200.028 58.8116L212.392 24.7733H212.958L225.345 58.8116H200.031H200.028Z" fill="white"/>
<path d="M271.13 34.4121H259.784V91.2523H271.13V34.4121Z" fill="white"/>
<path d="M304.97 79.7417C303.666 78.3458 303.014 76.1626 303.014 73.1861V43.6095H316.838V34.4121H303.014V20.3116H291.613V34.4121H282.032V43.6095H291.613V73.737C291.613 77.6652 292.311 81.0627 293.707 83.9266C295.103 86.7905 297.122 88.9853 299.764 90.5081C302.408 92.031 305.526 92.7953 309.126 92.7953C311.623 92.7953 314.21 92.354 316.89 91.4743V80.9531C314.908 81.5414 312.961 81.8356 311.052 81.8356C308.298 81.8356 306.27 81.1377 304.967 79.7417H304.97Z" fill="white"/>
<path d="M370.422 42.949H369.995C368.423 40.1745 366.447 37.9595 364.062 36.3127C360.74 34.0169 356.728 32.869 352.03 32.869C346.925 32.869 342.327 34.1726 338.235 36.7799C334.139 39.3871 330.929 42.9663 328.596 47.5203C326.263 52.0743 325.098 57.1763 325.098 62.8321C325.098 68.4879 326.263 73.5004 328.596 78.0891C330.926 82.6806 334.139 86.2771 338.235 88.8843C342.327 91.4916 346.928 92.7952 352.03 92.7952C356.728 92.7952 360.74 91.6473 364.062 89.3515C366.447 87.7047 368.426 85.4897 369.998 82.7152H370.424V91.2522H381.825V34.412H370.424V42.949H370.422ZM362.629 79.6869C360.042 81.3395 357.094 82.1643 353.789 82.1643C350.484 82.1643 347.493 81.3366 344.923 79.6869C342.353 78.0343 340.334 75.7299 338.866 72.7736C337.398 69.8174 336.663 66.5036 336.663 62.8321C336.663 59.1606 337.398 55.7545 338.866 52.8358C340.334 49.917 342.353 47.6299 344.923 45.9773C347.493 44.3247 350.449 43.4999 353.789 43.4999C357.129 43.4999 360.039 44.3276 362.629 45.9773C365.216 47.6299 367.235 49.9141 368.685 52.8358C370.136 55.7545 370.86 59.0885 370.86 62.8321C370.86 66.5757 370.133 69.9097 368.685 72.8284C367.235 75.7472 365.216 78.0343 362.629 79.6869Z" fill="white"/>
<path d="M438.654 34.4119V42.6201H438.224C436.652 39.9379 434.677 37.7979 432.295 36.203C428.972 33.9822 424.96 32.8718 420.262 32.8718C415.157 32.8718 410.56 34.138 406.467 36.6731C402.372 39.2082 399.162 42.6951 396.829 47.1367C394.495 51.5811 393.333 56.5187 393.333 61.9524C393.333 67.3861 394.498 72.3265 396.829 76.7681C399.159 81.2125 402.372 84.6994 406.467 87.2317C410.56 89.7668 415.16 91.0329 420.262 91.0329C424.96 91.0329 428.972 89.9225 432.295 87.7018C434.671 86.1126 436.641 83.9726 438.21 81.2846H438.657V85.5243C438.657 92.2067 437.105 97.3203 434.005 100.865C430.902 104.407 426.414 106.18 420.539 106.18C416.867 106.18 413.646 105.41 410.874 103.867C408.103 102.324 405.487 99.8266 403.027 96.3772L394.49 102.711C397.867 107.374 401.685 110.853 405.945 113.148C410.205 115.444 415.143 116.592 420.758 116.592C426.78 116.592 431.983 115.352 436.37 112.874C440.757 110.397 444.125 106.823 446.476 102.163C448.823 97.4991 450 91.9529 450 85.53V34.4177H438.657L438.654 34.4119ZM430.861 78.1438C428.274 79.7214 425.326 80.5117 422.021 80.5117C418.716 80.5117 415.725 79.7214 413.156 78.1438C410.586 76.5662 408.567 74.3627 407.099 71.5334C405.631 68.707 404.895 65.5114 404.895 61.9495C404.895 58.3876 405.628 55.1949 407.099 52.3656C408.567 49.5391 410.586 47.3357 413.156 45.7552C415.725 44.1776 418.681 43.3873 422.021 43.3873C425.361 43.3873 428.271 44.1776 430.861 45.7552C433.448 47.3357 435.467 49.5189 436.918 52.3108C438.368 55.1026 439.092 58.3155 439.092 61.9495C439.092 65.5835 438.366 68.707 436.918 71.5334C435.467 74.3598 433.448 76.5633 430.861 78.1438Z" fill="white"/>
<path d="M261.794 22.7341C260.71 22.1111 259.847 21.2574 259.207 20.173C258.564 19.0914 258.244 17.8686 258.244 16.5101C258.244 15.1517 258.564 13.9202 259.207 12.8185C259.85 11.7167 260.712 10.863 261.794 10.2574C262.875 9.65171 264.098 9.34888 265.457 9.34888C266.815 9.34888 268.052 9.65171 269.174 10.2574C270.293 10.863 271.156 11.7167 271.761 12.8185C272.367 13.9202 272.67 15.1517 272.67 16.5101C272.67 17.8686 272.367 19.0914 271.761 20.173C271.156 21.2574 270.293 22.1111 269.174 22.7341C268.055 23.3599 266.815 23.6714 265.457 23.6714C264.098 23.6714 262.878 23.3599 261.794 22.7341Z" fill="#1701FF"/>
<defs>
<linearGradient id="paint0_linear_8373_3719" x1="120.781" y1="129.718" x2="82.5521" y2="85.2444" gradientUnits="userSpaceOnUse">
<stop stop-color="white"/>
<stop offset="0.51" stop-color="#C3D8F9"/>
<stop offset="1" stop-color="#87B1F3"/>
</linearGradient>
<linearGradient id="paint1_linear_8373_3719" x1="-49.9241" y1="111.571" x2="94.0597" y2="40.33" gradientUnits="userSpaceOnUse">
<stop offset="0.1" stop-color="#0000FF"/>
<stop offset="0.2" stop-color="#0D18FE"/>
<stop offset="0.43" stop-color="#2949FC"/>
<stop offset="0.61" stop-color="#3A67FB"/>
<stop offset="0.71" stop-color="#4173FB"/>
<stop offset="0.81" stop-color="#5585F8"/>
<stop offset="1" stop-color="#87B1F3"/>
</linearGradient>
</defs>
</svg>
