<svg width="30" height="31" viewBox="0 0 30 31" fill="none" xmlns="http://www.w3.org/2000/svg">
<g id="vuesax/outline/close-circle">
<g id="vuesax/outline/close-circle_2">
<g id="close-circle">
<path id="Vector" d="M15 28.9375C7.5875 28.9375 1.5625 22.9125 1.5625 15.5C1.5625 8.0875 7.5875 2.0625 15 2.0625C22.4125 2.0625 28.4375 8.0875 28.4375 15.5C28.4375 22.9125 22.4125 28.9375 15 28.9375ZM15 3.9375C8.625 3.9375 3.4375 9.125 3.4375 15.5C3.4375 21.875 8.625 27.0625 15 27.0625C21.375 27.0625 26.5625 21.875 26.5625 15.5C26.5625 9.125 21.375 3.9375 15 3.9375Z" fill="#4D5256"/>
<path id="Vector_2" d="M11.4627 19.975C11.2252 19.975 10.9877 19.8875 10.8002 19.7C10.4377 19.3375 10.4377 18.7375 10.8002 18.375L17.8752 11.3C18.2377 10.9375 18.8377 10.9375 19.2002 11.3C19.5627 11.6625 19.5627 12.2625 19.2002 12.625L12.1252 19.7C11.9502 19.8875 11.7002 19.975 11.4627 19.975Z" fill="#4D5256"/>
<path id="Vector_3" d="M18.5377 19.975C18.3002 19.975 18.0627 19.8875 17.8752 19.7L10.8002 12.625C10.4377 12.2625 10.4377 11.6625 10.8002 11.3C11.1627 10.9375 11.7627 10.9375 12.1252 11.3L19.2002 18.375C19.5627 18.7375 19.5627 19.3375 19.2002 19.7C19.0127 19.8875 18.7752 19.975 18.5377 19.975Z" fill="#4D5256"/>
</g>
</g>
</g>
</svg>
