<svg width="40" height="40" viewBox="0 0 40 40" fill="none" xmlns="http://www.w3.org/2000/svg">
<path d="M27.6926 32.0032H13.3106C11.9027 32.0015 10.5529 31.4414 9.55736 30.4459C8.5618 29.4503 8.00172 28.1005 8 26.6926V12.3106C8.00172 10.9027 8.5618 9.55292 9.55736 8.55736C10.5529 7.56179 11.9027 7.00172 13.3106 7H27.6926C29.1003 7.00172 30.4497 7.5619 31.4447 8.55755C32.4398 9.55321 32.9991 10.903 33 12.3106V26.6926C32.9991 28.1002 32.4398 29.45 31.4447 30.4457C30.4497 31.4413 29.1003 32.0015 27.6926 32.0032ZM13.3106 9.3476C12.5251 9.34846 11.7719 9.66094 11.2164 10.2164C10.6609 10.7719 10.3485 11.5251 10.3476 12.3106V26.6926C10.3485 27.4782 10.6609 28.2313 11.2164 28.7868C11.7719 29.3423 12.5251 29.6547 13.3106 29.6556H27.6926C28.4779 29.6547 29.2307 29.3422 29.7857 28.7866C30.3406 28.231 30.6524 27.4779 30.6524 26.6926V12.3106C30.6524 11.5254 30.3406 10.7722 29.7857 10.2166C29.2307 9.66104 28.4779 9.34846 27.6926 9.3476H13.3106Z" fill="#919191"/>
<path d="M31.8271 23.9578V26.6928C31.8263 27.7893 31.3903 28.8406 30.615 29.6159C29.8397 30.3912 28.7884 30.8272 27.6919 30.828H13.31C12.2133 30.828 11.1615 30.3923 10.386 29.6168C9.61047 28.8413 9.1748 27.7896 9.1748 26.6928V22.1018C11.4768 21.6069 14.9836 21.4506 19.2392 23.1503L21.8767 20.6366L23.6739 25.1951C23.6739 25.1951 24.1558 23.5182 25.7122 23.7559C27.2686 23.9936 29.7888 24.8369 30.8666 24.1173C31.157 23.9498 31.4982 23.8931 31.8271 23.9578Z" fill="#919191"/>
<path d="M26.7911 15.2482C27.674 15.2482 28.3899 14.5325 28.3899 13.6495C28.3899 12.7666 27.674 12.0508 26.7911 12.0508C25.9081 12.0508 25.1924 12.7666 25.1924 13.6495C25.1924 14.5325 25.9081 15.2482 26.7911 15.2482Z" fill="#919191"/>
</svg>
