<svg width="20" height="20" viewBox="0 0 20 20" fill="none" xmlns="http://www.w3.org/2000/svg">
<g id="ic:round-navigate-before">
<path id="Vector" d="M12.4249 5.59173C12.3478 5.51447 12.2562 5.45318 12.1554 5.41137C12.0546 5.36955 11.9465 5.34802 11.8374 5.34802C11.7282 5.34802 11.6201 5.36955 11.5193 5.41137C11.4185 5.45318 11.327 5.51447 11.2499 5.59173L7.42486 9.41673C7.3476 9.49382 7.28631 9.58539 7.2445 9.68621C7.20268 9.78702 7.18115 9.89509 7.18115 10.0042C7.18115 10.1134 7.20268 10.2214 7.2445 10.3222C7.28631 10.4231 7.3476 10.5146 7.42486 10.5917L11.2499 14.4167C11.327 14.4939 11.4186 14.5551 11.5194 14.5968C11.6202 14.6386 11.7282 14.6601 11.8374 14.6601C11.9465 14.6601 12.0545 14.6386 12.1553 14.5968C12.2561 14.5551 12.3477 14.4939 12.4249 14.4167C12.502 14.3396 12.5632 14.248 12.605 14.1472C12.6467 14.0464 12.6682 13.9383 12.6682 13.8292C12.6682 13.7201 12.6467 13.6121 12.605 13.5113C12.5632 13.4105 12.502 13.3189 12.4249 13.2417L9.19152 10.0001L12.4249 6.76673C12.7415 6.44173 12.7415 5.90839 12.4249 5.59173Z" fill="black"/>
</g>
</svg>
