<svg width="100" height="101" viewBox="0 0 100 101" fill="none" xmlns="http://www.w3.org/2000/svg">
<path id="Icon - check" fill-rule="evenodd" clip-rule="evenodd" d="M48.0455 67.8216C47.5435 68.4131 46.745 68.6626 45.9955 68.4621C45.2585 68.6661 44.4695 68.4391 43.9535 67.8746L29.0185 51.4101C28.274 50.5916 28.334 49.3251 29.1525 48.5806C30.0035 47.8226 31.2815 47.8891 32.034 48.7161L45.971 64.0801L69.46 36.2516C70.174 35.4081 71.435 35.2976 72.2845 36.0051C73.127 36.7061 73.242 37.9571 72.541 38.7996C72.5375 38.8041 48.0455 67.8216 48.0455 67.8216ZM4 50.0416C4 75.4466 24.595 96.0416 50 96.0416C75.405 96.0416 96 75.4466 96 50.0416C96 24.6366 75.405 4.04163 50 4.04163C24.595 4.04163 4 24.6366 4 50.0416ZM0 50.0416C0 22.4276 22.386 0.041626 50 0.041626C77.614 0.041626 100 22.4276 100 50.0416C100 77.6556 77.614 100.042 50 100.042C22.386 100.042 0 77.6556 0 50.0416Z" fill="#35D48D"/>
</svg>
