<svg width="44" height="44" viewBox="0 0 44 44" fill="none" xmlns="http://www.w3.org/2000/svg">
<g id="instagram">
<g id="instagram_2">
<path d="M22 25.85C19.9375 25.85 18.15 24.2 18.15 22C18.15 19.9375 19.8 18.15 22 18.15C24.0625 18.15 25.85 19.8 25.85 22C25.85 24.0625 24.0625 25.85 22 25.85Z" fill="#919191"/>
<path fill-rule="evenodd" clip-rule="evenodd" d="M26.675 12.65H17.325C16.225 12.7875 15.675 12.925 15.2625 13.0625C14.7125 13.2 14.3 13.475 13.8875 13.8875C13.5611 14.2139 13.4069 14.5403 13.2205 14.9348C13.1713 15.0388 13.1198 15.1478 13.0625 15.2625C13.0412 15.3263 13.0167 15.3934 12.9903 15.4653C12.8465 15.8583 12.65 16.3952 12.65 17.325V26.675C12.7875 27.775 12.925 28.325 13.0625 28.7375C13.2 29.2875 13.475 29.7 13.8875 30.1125C14.2139 30.4389 14.5403 30.5931 14.9348 30.7795C15.0389 30.8287 15.1477 30.8801 15.2625 30.9375C15.3263 30.9588 15.3934 30.9833 15.4653 31.0097C15.8583 31.1535 16.3952 31.35 17.325 31.35H26.675C27.775 31.2125 28.325 31.075 28.7375 30.9375C29.2875 30.8 29.7 30.525 30.1125 30.1125C30.4389 29.7861 30.5931 29.4597 30.7795 29.0652C30.8287 28.9611 30.8801 28.8523 30.9375 28.7375C30.9588 28.6737 30.9833 28.6066 31.0097 28.5347C31.1535 28.1417 31.35 27.6048 31.35 26.675V17.325C31.2125 16.225 31.075 15.675 30.9375 15.2625C30.8 14.7125 30.525 14.3 30.1125 13.8875C29.7861 13.5611 29.4597 13.4069 29.0652 13.2205C28.9613 13.1714 28.8521 13.1198 28.7375 13.0625C28.6737 13.0412 28.6066 13.0167 28.5347 12.9903C28.1417 12.8465 27.6048 12.65 26.675 12.65ZM22 16.0875C18.7 16.0875 16.0875 18.7 16.0875 22C16.0875 25.3 18.7 27.9125 22 27.9125C25.3 27.9125 27.9125 25.3 27.9125 22C27.9125 18.7 25.3 16.0875 22 16.0875ZM29.425 15.95C29.425 16.7094 28.8094 17.325 28.05 17.325C27.2906 17.325 26.675 16.7094 26.675 15.95C26.675 15.1906 27.2906 14.575 28.05 14.575C28.8094 14.575 29.425 15.1906 29.425 15.95Z" fill="#919191"/>
<path fill-rule="evenodd" clip-rule="evenodd" d="M0 22C0 9.84974 9.84974 0 22 0C34.1503 0 44 9.84974 44 22C44 34.1503 34.1503 44 22 44C9.84974 44 0 34.1503 0 22ZM17.325 10.5875H26.675C27.9125 10.725 28.7375 10.8625 29.425 11.1375C30.25 11.55 30.8 11.825 31.4875 12.5125C32.175 13.2 32.5875 13.8875 32.8625 14.575C33.1375 15.2625 33.4125 16.0875 33.4125 17.325V26.675C33.275 27.9125 33.1375 28.7375 32.8625 29.425C32.45 30.25 32.175 30.8 31.4875 31.4875C30.8 32.175 30.1125 32.5875 29.425 32.8625C28.7375 33.1375 27.9125 33.4125 26.675 33.4125H17.325C16.0875 33.275 15.2625 33.1375 14.575 32.8625C13.75 32.45 13.2 32.175 12.5125 31.4875C11.825 30.8 11.4125 30.1125 11.1375 29.425C10.8625 28.7375 10.5875 27.9125 10.5875 26.675V17.325C10.725 16.0875 10.8625 15.2625 11.1375 14.575C11.55 13.75 11.825 13.2 12.5125 12.5125C13.2 11.825 13.8875 11.4125 14.575 11.1375C15.2625 10.8625 16.0875 10.5875 17.325 10.5875Z" fill="#919191"/>
</g>
</g>
</svg>
