<svg width="24" height="24" viewBox="0 0 24 24" fill="none" xmlns="http://www.w3.org/2000/svg">
<g id="mingcute:close-fill" clip-path="url(#clip0_5789_3681)">
<g id="Group">
<path id="Vector" fill-rule="evenodd" clip-rule="evenodd" d="M11.9996 14.122L17.3026 19.425C17.584 19.7064 17.9657 19.8645 18.3636 19.8645C18.7616 19.8645 19.1432 19.7064 19.4246 19.425C19.706 19.1436 19.8641 18.762 19.8641 18.364C19.8641 17.9661 19.706 17.5844 19.4246 17.303L14.1196 12L19.4236 6.697C19.5629 6.55767 19.6733 6.39227 19.7487 6.21025C19.824 6.02823 19.8628 5.83315 19.8627 5.63615C19.8627 5.43915 19.8238 5.24409 19.7484 5.0621C19.673 4.88012 19.5624 4.71477 19.4231 4.5755C19.2838 4.43624 19.1184 4.32578 18.9364 4.25043C18.7543 4.17509 18.5592 4.13633 18.3623 4.13638C18.1653 4.13642 17.9702 4.17527 17.7882 4.2507C17.6062 4.32613 17.4409 4.43667 17.3016 4.576L11.9996 9.879L6.6966 4.576C6.5583 4.43267 6.39284 4.31832 6.20987 4.23963C6.0269 4.16093 5.83009 4.11946 5.63092 4.11763C5.43176 4.11581 5.23422 4.15367 5.04984 4.229C4.86546 4.30434 4.69793 4.41564 4.55703 4.55641C4.41612 4.69718 4.30466 4.86461 4.22916 5.04891C4.15365 5.23322 4.1156 5.43072 4.11724 5.62989C4.11887 5.82906 4.16016 6.02591 4.23869 6.20895C4.31721 6.39199 4.43141 6.55757 4.5746 6.696L9.8796 12L4.5756 17.304C4.43241 17.4424 4.31821 17.608 4.23969 17.7911C4.16116 17.9741 4.11987 18.1709 4.11824 18.3701C4.1166 18.5693 4.15465 18.7668 4.23016 18.9511C4.30566 19.1354 4.41712 19.3028 4.55803 19.4436C4.69893 19.5844 4.86646 19.6957 5.05084 19.771C5.23522 19.8463 5.43276 19.8842 5.63192 19.8824C5.83109 19.8806 6.0279 19.8391 6.21087 19.7604C6.39384 19.6817 6.5593 19.5673 6.6976 19.424L11.9996 14.122Z" fill="#B0BAC9"/>
</g>
</g>
<defs>
<clipPath id="clip0_5789_3681">
<rect width="24" height="24" fill="white"/>
</clipPath>
</defs>
</svg>
