<svg width="15" height="18" viewBox="0 0 15 18" fill="none" xmlns="http://www.w3.org/2000/svg">
<path id="Vector" d="M6.53603 10.7805L8.64803 13.5535C8.29103 13.6525 7.90403 13.6975 7.49303 13.6975C4.95603 13.6975 3.17104 11.7755 3.17104 8.22052C3.17104 4.66552 4.95603 2.7435 7.49303 2.7435C10.038 2.7435 11.824 4.66552 11.824 8.22052C11.824 10.1425 11.299 11.5935 10.418 12.5125L9.08102 10.7805H6.53603ZM0.353027 8.22052C0.353027 13.2345 3.40603 16.2125 7.49303 16.2125C8.48103 16.2125 9.40803 16.0375 10.243 15.7035L11.535 17.3445H14.262L12.105 14.5715C13.67 13.2115 14.634 11.0395 14.634 8.22052C14.634 3.19152 11.573 0.228516 7.49303 0.228516C3.40603 0.228516 0.353027 3.19152 0.353027 8.22052Z" fill="white"/>
</svg>
