<svg width="26" height="26" viewBox="0 0 26 26" fill="none" xmlns="http://www.w3.org/2000/svg">
<g id="Frame 33613">
<g id="Icon - search">
<mask id="path-1-inside-1_7217_2787" fill="white">
<path fill-rule="evenodd" clip-rule="evenodd" d="M17.6327 16.2212C20.0765 13.0827 19.8557 8.54205 16.9706 5.65687C13.8464 2.53267 8.78105 2.53267 5.65685 5.65687C2.53266 8.78106 2.53266 13.8464 5.65685 16.9706C8.54204 19.8558 13.0827 20.0765 16.2212 17.6328C16.2347 17.6481 16.2488 17.663 16.2635 17.6777L21.2132 22.6274C21.6037 23.018 22.2369 23.018 22.6274 22.6274C23.0179 22.2369 23.0179 21.6037 22.6274 21.2132L17.6777 16.2635C17.663 16.2488 17.648 16.2347 17.6327 16.2212Z"/>
</mask>
<path d="M17.6327 16.2212L16.0547 14.9925L14.9011 16.474L16.307 17.7187L17.6327 16.2212ZM16.2212 17.6328L17.7187 16.307L16.474 14.9011L14.9925 16.0547L16.2212 17.6328ZM15.5563 7.07108C17.7192 9.2339 17.8862 12.6402 16.0547 14.9925L19.2108 17.4499C22.2667 13.5252 21.9923 7.8502 18.3848 4.24265L15.5563 7.07108ZM7.07107 7.07108C9.41421 4.72793 13.2132 4.72793 15.5563 7.07108L18.3848 4.24265C14.4795 0.33741 8.14788 0.33741 4.24264 4.24265L7.07107 7.07108ZM7.07107 15.5564C4.72792 13.2132 4.72792 9.41423 7.07107 7.07108L4.24264 4.24265C0.337398 8.1479 0.337398 14.4795 4.24264 18.3848L7.07107 15.5564ZM14.9925 16.0547C12.6402 17.8862 9.23389 17.7192 7.07107 15.5564L4.24264 18.3848C7.85018 21.9923 13.5252 22.2667 17.4499 19.2108L14.9925 16.0547ZM17.6777 16.2635C17.6919 16.2777 17.7056 16.2923 17.7187 16.307L14.7237 18.9585C14.7639 19.0039 14.8057 19.0484 14.8492 19.0919L17.6777 16.2635ZM22.6274 21.2132L17.6777 16.2635L14.8492 19.0919L19.799 24.0416L22.6274 21.2132ZM21.2132 21.2132C21.6037 20.8227 22.2369 20.8227 22.6274 21.2132L19.799 24.0416C20.9706 25.2132 22.8701 25.2132 24.0416 24.0416L21.2132 21.2132ZM21.2132 22.6274C20.8227 22.2369 20.8227 21.6037 21.2132 21.2132L24.0416 24.0416C25.2132 22.8701 25.2132 20.9706 24.0416 19.799L21.2132 22.6274ZM16.2635 17.6777L21.2132 22.6274L24.0416 19.799L19.0919 14.8493L16.2635 17.6777ZM16.307 17.7187C16.2922 17.7056 16.2777 17.6919 16.2635 17.6777L19.0919 14.8493C19.0484 14.8057 19.0038 14.7639 18.9585 14.7237L16.307 17.7187Z" fill="#A9AFB3" mask="url(#path-1-inside-1_7217_2787)"/>
</g>
</g>
</svg>
