<svg width="25" height="24" viewBox="0 0 25 24" fill="none" xmlns="http://www.w3.org/2000/svg">
<path fill-rule="evenodd" clip-rule="evenodd" d="M12.25 21.913C6.77487 21.913 2.33696 17.4751 2.33696 12C2.33696 6.52487 6.77487 2.08696 12.25 2.08696C17.7246 2.08696 22.163 6.52487 22.163 12C22.163 17.4751 17.7246 21.913 12.25 21.913ZM12.25 0C5.62235 0 0.25 5.37235 0.25 12C0.25 18.6271 5.62235 24 12.25 24C18.8771 24 24.25 18.6271 24.25 12C24.25 5.37235 18.8771 0 12.25 0ZM8.2922 11.7839C7.88469 11.3764 7.224 11.3764 6.8165 11.7839C6.40899 12.1914 6.40899 12.8521 6.8165 13.2596L9.94693 16.39C10.3544 16.7975 11.0151 16.7975 11.4226 16.39L17.6835 10.1292C18.091 9.72165 18.091 9.06096 17.6835 8.65345C17.276 8.24595 16.6153 8.24595 16.2078 8.65345L10.6848 14.1765L8.2922 11.7839Z" fill="white"/>
</svg>
