<svg width="25" height="24" viewBox="0 0 25 24" fill="none" xmlns="http://www.w3.org/2000/svg">
<path fill-rule="evenodd" clip-rule="evenodd" d="M12.25 21.913C6.77487 21.913 2.33696 17.4751 2.33696 12C2.33696 6.52487 6.77487 2.08696 12.25 2.08696C17.7246 2.08696 22.163 6.52487 22.163 12C22.163 17.4751 17.7246 21.913 12.25 21.913ZM12.25 0C5.62235 0 0.25 5.37235 0.25 12C0.25 18.6271 5.62235 24 12.25 24C18.8771 24 24.25 18.6271 24.25 12C24.25 5.37235 18.8771 0 12.25 0ZM13.8152 17.2103C13.8152 16.3463 13.1624 15.6522 12.2426 15.6522C11.3376 15.6522 10.6848 16.3463 10.6848 17.2103C10.6848 18.0885 11.3376 18.7826 12.2426 18.7826C13.1624 18.7826 13.8152 18.0885 13.8152 17.2103ZM11.2065 13.5652H13.2935L13.5022 7.30435V5.21739H10.9978V7.30435L11.2065 13.5652Z" fill="white"/>
</svg>
