<svg width="46" height="47" viewBox="0 0 46 47" fill="none" xmlns="http://www.w3.org/2000/svg">
<g id="Frame">
<g id="upload-file">
<path id="Intersect" d="M40.6566 36.9188C41.0089 31.2637 41.1372 25.5969 41.041 19.9317C41.0202 17.3687 40.1682 14.8817 38.6129 12.8444C36.234 9.78212 34.072 7.62012 30.8093 5.09998C29.7637 4.29874 28.4891 3.85315 27.172 3.82841C25.7813 3.79893 24.3903 3.78469 22.9992 3.78569C18.5405 3.78569 14.9426 3.91712 11.2232 4.17669C9.69333 4.27967 8.25312 4.93545 7.17101 6.02178C6.08891 7.10811 5.43876 8.55087 5.34176 10.0811C5.06383 14.5487 4.92576 19.0238 4.92776 23.5C4.92776 28.1 5.06904 32.5883 5.34176 36.9188C5.5389 40.0863 8.05576 42.6064 11.2232 42.8233C14.9426 43.0828 18.5405 43.2143 22.9992 43.2143C27.4579 43.2143 31.0558 43.0828 34.7752 42.8233C36.305 42.7203 37.7453 42.0645 38.8274 40.9782C39.9095 39.8918 40.5596 38.4491 40.6566 36.9188Z" stroke="#4C80F1" stroke-width="3.28571" stroke-linecap="round" stroke-linejoin="round"/>
<path id="Vector" d="M22.1777 32.3385V14.6614" stroke="#4C80F1" stroke-width="3.28571" stroke-linecap="round" stroke-linejoin="round"/>
<path id="Vector_2" d="M15.4355 20.5099C17.4825 17.8945 18.879 16.6755 20.9588 15.0819C21.3061 14.8079 21.7355 14.6589 22.1778 14.6589C22.6201 14.6589 23.0496 14.8079 23.3968 15.0819C25.4767 16.6755 26.8731 17.8945 28.9234 20.5132" stroke="#4C80F1" stroke-width="3.28571" stroke-linecap="round" stroke-linejoin="round"/>
</g>
</g>
</svg>
