<svg width="18" height="18" viewBox="0 0 18 18" fill="none" xmlns="http://www.w3.org/2000/svg">
<path d="M15.0793 0.905762H3.42017C2.07954 0.905762 0.982666 2.00264 0.982666 3.34326V15.0037C0.982666 16.3443 2.07954 17.4412 3.42017 17.4412H15.0806C16.4212 17.4412 17.5181 16.3443 17.5181 15.0037V3.34326C17.5168 2.00264 16.4212 0.905762 15.0793 0.905762ZM14.9227 9.73134H12.9605V16.8306H10.0246V9.73134H8.55598V7.28409H10.0246V5.8155C10.0246 3.81918 10.8533 2.63151 13.2116 2.63151H15.172V5.07815H13.9459C13.0294 5.07815 12.9685 5.42123 12.9685 6.05925L12.9605 7.28409H15.1817L14.9227 9.73134Z" fill="white"/>
</svg>
