<svg width="18" height="18" viewBox="0 0 18 18" fill="none" xmlns="http://www.w3.org/2000/svg">
<path fill-rule="evenodd" clip-rule="evenodd" d="M4.22173 0.519043C3.26003 0.519043 2.3377 0.900981 1.65754 1.58087C0.977388 2.26077 0.595096 3.18295 0.594727 4.14465V13.8166C0.594727 14.7786 0.976856 15.7011 1.65705 16.3813C2.33724 17.0615 3.25979 17.4436 4.22173 17.4436H13.8937C14.8554 17.4433 15.7776 17.061 16.4575 16.3808C17.1374 15.7007 17.5193 14.7783 17.5193 13.8166V4.14465C17.519 3.18319 17.1369 2.26122 16.457 1.58137C15.7772 0.901513 14.8552 0.519412 13.8937 0.519043H4.22173ZM14.937 4.15022C14.937 4.42728 14.8269 4.69299 14.631 4.8889C14.4351 5.0848 14.1694 5.19486 13.8923 5.19486C13.6153 5.19486 13.3496 5.0848 13.1537 4.8889C12.9577 4.69299 12.8477 4.42728 12.8477 4.15022C12.8477 3.87317 12.9577 3.60746 13.1537 3.41155C13.3496 3.21564 13.6153 3.10558 13.8923 3.10558C14.1694 3.10558 14.4351 3.21564 14.631 3.41155C14.8269 3.60746 14.937 3.87317 14.937 4.15022ZM9.05912 6.08351C8.29075 6.08351 7.55385 6.38874 7.01053 6.93206C6.46721 7.47538 6.16198 8.21228 6.16198 8.98065C6.16198 9.74902 6.46721 10.4859 7.01053 11.0292C7.55385 11.5726 8.29075 11.8778 9.05912 11.8778C9.82749 11.8778 10.5644 11.5726 11.1077 11.0292C11.651 10.4859 11.9563 9.74902 11.9563 8.98065C11.9563 8.21228 11.651 7.47538 11.1077 6.93206C10.5644 6.38874 9.82749 6.08351 9.05912 6.08351ZM4.76773 8.98065C4.76773 7.84287 5.21971 6.75169 6.02424 5.94716C6.82877 5.14263 7.91995 4.69065 9.05773 4.69065C10.1955 4.69065 11.2867 5.14263 12.0912 5.94716C12.8957 6.75169 13.3477 7.84287 13.3477 8.98065C13.3477 10.1184 12.8957 11.2096 12.0912 12.0141C11.2867 12.8187 10.1955 13.2707 9.05773 13.2707C7.91995 13.2707 6.82877 12.8187 6.02424 12.0141C5.21971 11.2096 4.76773 10.1184 4.76773 8.98065Z" fill="white"/>
</svg>
