<svg width="313" height="153" viewBox="0 0 313 153" fill="none" xmlns="http://www.w3.org/2000/svg">
<rect x="0.5" y="1" width="312" height="151" rx="7.5" fill="#F2F6FE"/>
<rect x="0.5" y="1" width="312" height="151" rx="7.5" stroke="#4C80F1"/>
<path d="M171.429 35.3569H128.571C127.585 35.3569 126.786 36.1564 126.786 37.1426V63.9283C126.786 64.9145 127.585 65.714 128.571 65.714H171.429C172.415 65.714 173.214 64.9145 173.214 63.9283V37.1426C173.214 36.1564 172.415 35.3569 171.429 35.3569Z" fill="#F2F6FE"/>
<path d="M142.857 74.6426L146.429 65.714H153.571L157.143 74.6426H142.857Z" fill="white"/>
<path d="M171.429 35.3569H128.571C127.585 35.3569 126.786 36.1564 126.786 37.1426V63.9283C126.786 64.9145 127.585 65.714 128.571 65.714H171.429C172.415 65.714 173.214 64.9145 173.214 63.9283V37.1426C173.214 36.1564 172.415 35.3569 171.429 35.3569Z" stroke="#87B1F3" stroke-width="3.57143" stroke-linecap="round" stroke-linejoin="round"/>
<path d="M146.429 65.714L142.857 74.6426" stroke="#87B1F3" stroke-width="3.57143" stroke-linecap="round" stroke-linejoin="round"/>
<path d="M153.571 65.714L157.143 74.6426" stroke="#87B1F3" stroke-width="3.57143" stroke-linecap="round" stroke-linejoin="round"/>
<path d="M139.286 74.6426H160.714" stroke="#87B1F3" stroke-width="3.57143" stroke-linecap="round" stroke-linejoin="round"/>
<path d="M161.647 46.6967H178.192C179.023 46.6967 179.697 46.0233 179.697 45.1926V28.6473C179.697 27.8166 179.023 27.1431 178.192 27.1431H161.647C160.816 27.1431 160.143 27.8166 160.143 28.6473V45.1926C160.143 46.0233 160.816 46.6967 161.647 46.6967Z" fill="white"/>
<path d="M161.647 46.6967C160.816 46.6967 160.143 46.0233 160.143 45.1926V28.6473C160.143 27.8166 160.816 27.1431 161.647 27.1431H178.192C179.023 27.1431 179.696 27.8166 179.696 28.6473" stroke="#2C5AE9" stroke-width="2.14286" stroke-linecap="round" stroke-linejoin="round"/>
<path d="M167.808 52.8574H184.353C185.184 52.8574 185.857 52.1839 185.857 51.3534V34.808C185.857 33.9773 185.184 33.3039 184.353 33.3039H167.808C166.977 33.3039 166.304 33.9773 166.304 34.808V51.3534C166.304 52.1839 166.977 52.8574 167.808 52.8574Z" fill="#D7E0FF"/>
<path d="M182.07 52.8574L171.892 42.6789L166.31 48.2604L166.303 51.3534C166.303 52.1839 166.977 52.8574 167.808 52.8574H182.07Z" fill="white"/>
<path d="M182.07 52.8574L171.892 42.6789L166.31 48.2604" stroke="#2C5AE9" stroke-width="2.14286" stroke-linecap="round" stroke-linejoin="round"/>
<path d="M167.808 52.8574H184.353C185.184 52.8574 185.857 52.1839 185.857 51.3534V34.808C185.857 33.9773 185.184 33.3039 184.353 33.3039H167.808C166.977 33.3039 166.303 33.9773 166.303 34.808V51.3534C166.303 52.1839 166.977 52.8574 167.808 52.8574Z" stroke="#2C5AE9" stroke-width="2.14286" stroke-linecap="round" stroke-linejoin="round"/>
<path d="M179.429 42.6789C177.949 42.6789 176.75 41.4796 176.75 40.0003C176.75 38.5209 177.949 37.3217 179.429 37.3217C180.908 37.3217 182.107 38.5209 182.107 40.0003C182.107 41.4796 180.908 42.6789 179.429 42.6789Z" fill="white"/>
<path d="M179.429 42.6789C177.949 42.6789 176.75 41.4796 176.75 40.0003C176.75 38.5209 177.949 37.3217 179.429 37.3217C180.908 37.3217 182.107 38.5209 182.107 40.0003C182.107 41.4796 180.908 42.6789 179.429 42.6789Z" stroke="#2C5AE9" stroke-width="2.14286" stroke-linecap="round" stroke-linejoin="round"/>
<path d="M98.8346 97.6112V107.469H96.684V97.6112H98.8346ZM84.7938 103.547C86.8822 103.547 90.3815 103.503 92.9547 103.106L93.1039 104.591C92.184 104.802 91.1709 104.939 90.1516 105.032V107.376H88.001V105.175C86.8822 105.219 85.838 105.219 84.9989 105.219L84.7938 103.547ZM85.4589 100.557C85.4589 99.078 86.876 98.1706 88.9831 98.1644C91.0715 98.1706 92.5072 99.078 92.5072 100.557C92.5072 102.006 91.0715 102.956 88.9831 102.956C86.876 102.956 85.4589 102.006 85.4589 100.557ZM87.3981 113.442V107.972H89.6232V109.041H96.597V107.972H98.8346V113.442H87.3981ZM87.4913 100.557C87.4913 101.135 88.0445 101.39 88.9831 101.396C89.9029 101.39 90.5058 101.135 90.5121 100.557C90.5058 99.9793 89.9029 99.712 88.9831 99.7182C88.0445 99.712 87.4913 99.9793 87.4913 100.557ZM89.6232 111.708H96.597V110.744H89.6232V111.708ZM91.2206 106.91V105.412H93.626V97.8847H95.7393V107.444H93.626V106.91H91.2206ZM106.342 101.241C106.33 104.106 107.554 106.997 110.121 108.24L108.766 110.023C107.057 109.178 105.895 107.599 105.23 105.673C104.533 107.742 103.297 109.433 101.482 110.334L100.108 108.513C102.812 107.27 104.092 104.212 104.098 101.241V98.8481H106.342V101.241ZM110.83 113.622V97.6112H113.074V103.783H115.435V105.679H113.074V113.622H110.83ZM129.401 97.6112V113.66H127.132V97.6112H129.401ZM116.479 104.436C116.473 100.955 118.263 98.7424 120.712 98.7424C123.129 98.7424 124.92 100.955 124.926 104.436C124.92 107.954 123.129 110.154 120.712 110.154C118.263 110.154 116.473 107.954 116.479 104.436ZM118.648 104.436C118.636 106.829 119.469 108.122 120.712 108.122C121.93 108.122 122.757 106.829 122.757 104.436C122.757 102.068 121.93 100.769 120.712 100.769C119.469 100.769 118.636 102.068 118.648 104.436ZM144.609 105.884V107.649H133.297V98.7983H144.485V100.613H135.572V102.304H144.106V104.063H135.572V105.884H144.609ZM131.569 111.758V109.93H146.201V111.758H131.569ZM152.297 98.6865C154.846 98.6865 156.729 100.321 156.741 102.615C156.729 104.914 154.846 106.543 152.297 106.543C149.78 106.543 147.853 104.914 147.859 102.615C147.853 100.321 149.78 98.6865 152.297 98.6865ZM147.194 108.563C150.047 108.563 154 108.526 157.425 108.047L157.593 109.663C154.05 110.353 150.252 110.384 147.449 110.384L147.194 108.563ZM150.085 102.615C150.085 103.883 151.042 104.604 152.297 104.604C153.578 104.604 154.547 103.883 154.554 102.615C154.547 101.365 153.584 100.626 152.297 100.626C151.036 100.626 150.085 101.365 150.085 102.615ZM158.333 113.66V97.6112H160.564V113.66H158.333ZM180.219 97.6112V113.66H177.951V97.6112H180.219ZM167.297 104.436C167.291 100.955 169.081 98.7424 171.53 98.7424C173.948 98.7424 175.738 100.955 175.744 104.436C175.738 107.954 173.948 110.154 171.53 110.154C169.081 110.154 167.291 107.954 167.297 104.436ZM169.466 104.436C169.454 106.829 170.287 108.122 171.53 108.122C172.748 108.122 173.575 106.829 173.575 104.436C173.575 102.068 172.748 100.769 171.53 100.769C170.287 100.769 169.454 102.068 169.466 104.436ZM190.909 99.0718V109.806H183.183V99.0718H190.909ZM185.415 108.028H188.734V100.818H185.415V108.028ZM193.507 113.66V97.6112H195.776V113.66H193.507ZM204.135 101.974C204.135 104.566 205.471 107.332 208.15 108.445L206.944 110.204C205.055 109.408 203.756 107.817 203.035 105.878C202.314 107.985 200.99 109.738 199.1 110.602L197.826 108.843C200.474 107.655 201.848 104.691 201.854 101.974V100.992H198.454V99.1588H207.485V100.992H204.135V101.974ZM209.064 113.622V97.6112H211.333V113.622H209.064ZM228.114 104.79V106.456H213.482V104.79H228.114ZM215.154 108.805V107.251H226.367V111.03H217.398V111.944H226.833V113.473H215.167V109.607H224.142V108.805H215.154ZM215.279 99.4323V97.9095H226.348V101.664H217.535V102.521H226.622V104.038H215.304V100.24H224.098V99.4323H215.279Z" fill="#4D5256"/>
</svg>
