<svg width="313" height="153" viewBox="0 0 313 153" fill="none" xmlns="http://www.w3.org/2000/svg">
<rect x="0.5" y="1" width="312" height="151" rx="7.5" fill="#F2F6FE"/>
<rect x="0.5" y="1" width="312" height="151" rx="7.5" stroke="#4C80F1"/>
<g clip-path="url(#clip0_5676_6707)">
<path fill-rule="evenodd" clip-rule="evenodd" d="M163.536 28.5706H140.321C139.335 28.5706 138.536 29.3701 138.536 30.3563V60.7134C138.536 61.6995 139.335 62.4992 140.321 62.4992H163.536V28.5706Z" fill="#F2F6FE"/>
<path fill-rule="evenodd" clip-rule="evenodd" d="M184.964 53.5706L176.964 46.4277C175.684 45.3679 174.073 44.7881 172.411 44.7881C170.748 44.7881 169.138 45.3679 167.857 46.4277L163.536 49.9991V62.4992H183.179C184.165 62.4992 184.964 61.6995 184.964 60.7134V53.5706Z" fill="#F2F6FE"/>
<path d="M154.607 71.4277L158.179 62.4991H165.321L168.893 71.4277H154.607Z" fill="white"/>
<path d="M184.964 30.3563C184.964 29.3701 184.165 28.5706 183.179 28.5706H163.536V49.9992L167.857 46.4277C169.138 45.3679 170.748 44.7881 172.411 44.7881C174.073 44.7881 175.684 45.3679 176.964 46.4277L184.964 53.5706V30.3563Z" fill="white"/>
<path d="M183.179 28.5706H140.321C139.335 28.5706 138.536 29.3701 138.536 30.3563V60.7134C138.536 61.6995 139.335 62.4992 140.321 62.4992H183.179C184.165 62.4992 184.964 61.6995 184.964 60.7134V30.3563C184.964 29.3701 184.165 28.5706 183.179 28.5706Z" stroke="#87B1F3" stroke-width="3.57143" stroke-linecap="round" stroke-linejoin="round"/>
<path d="M158.179 62.4991L154.607 71.4277" stroke="#87B1F3" stroke-width="3.57143" stroke-linecap="round" stroke-linejoin="round"/>
<path d="M165.321 62.4991L168.893 71.4277" stroke="#87B1F3" stroke-width="3.57143" stroke-linecap="round" stroke-linejoin="round"/>
<path d="M151.036 71.4277H172.464" stroke="#87B1F3" stroke-width="3.57143" stroke-linecap="round" stroke-linejoin="round"/>
<path d="M163.536 28.5706V62.4992" stroke="#87B1F3" stroke-width="3.57143" stroke-linecap="round" stroke-linejoin="round"/>
<path d="M147.464 39.2849H154.607" stroke="#87B1F3" stroke-width="3.57143" stroke-linecap="round" stroke-linejoin="round"/>
<path d="M147.464 47.3206H151.036" stroke="#87B1F3" stroke-width="3.57143" stroke-linecap="round" stroke-linejoin="round"/>
<path d="M163.536 49.9991L167.857 46.4277C169.138 45.3679 170.748 44.7881 172.411 44.7881C174.073 44.7881 175.684 45.3679 176.964 46.4277L184.964 53.5706" stroke="#87B1F3" stroke-width="3.57143" stroke-linecap="round" stroke-linejoin="round"/>
</g>
<g clip-path="url(#clip1_5676_6707)">
<path d="M139.643 63.8199C133.726 63.8199 128.929 59.0229 128.929 53.1056C128.929 47.1882 133.726 42.3913 139.643 42.3913C145.56 42.3913 150.357 47.1882 150.357 53.1056C150.357 59.0229 145.56 63.8199 139.643 63.8199Z" fill="#D7E0FF"/>
<path d="M139.643 63.8199C133.726 63.8199 128.929 59.0229 128.929 53.1056C128.929 47.1882 133.726 42.3913 139.643 42.3913C145.56 42.3913 150.357 47.1882 150.357 53.1056C150.357 59.0229 145.56 63.8199 139.643 63.8199Z" stroke="#2C5AE9" stroke-width="1.78571" stroke-linecap="round" stroke-linejoin="round"/>
<path d="M132.072 60.6774L127.143 65.6059" stroke="#2C5AE9" stroke-width="1.78571" stroke-linecap="round" stroke-linejoin="round"/>
<path d="M144.107 49.0872H135.179" stroke="#2C5AE9" stroke-width="1.78571" stroke-linecap="round" stroke-linejoin="round"/>
<path d="M144.107 53.1058H135.179" stroke="#2C5AE9" stroke-width="1.78571" stroke-linecap="round" stroke-linejoin="round"/>
<path d="M144.107 57.1227H136.965" stroke="#2C5AE9" stroke-width="1.78571" stroke-linecap="round" stroke-linejoin="round"/>
</g>
<path d="M94.7493 89.4454C94.7431 90.471 95.0041 91.7079 95.8246 92.6215C96.6264 91.7141 96.8999 90.5083 96.9061 89.4454V89.1657H96.1043V87.3695H100.666V89.1657H99.0318V89.4454C99.0193 90.8688 99.6782 92.4289 101.425 93.2058L100.362 94.7907C99.1809 94.2935 98.4351 93.4171 98 92.3729C97.6209 93.4482 96.9558 94.4116 95.8122 94.971C94.6872 94.4116 94.0221 93.4606 93.6492 92.3978C93.2017 93.4233 92.4558 94.2873 91.3122 94.7907L90.2555 93.2058C91.9772 92.4289 92.6547 90.8377 92.6609 89.4454V89.1657H90.8957V87.3695H95.5822V89.1657H94.7493V89.4454ZM92.3191 97.4323V95.8163H97.4965V99.8564H94.5069V100.851C95.837 100.845 96.7134 100.814 97.77 100.602L97.9565 102.237C96.5269 102.492 95.4081 102.51 93.27 102.51H92.3377V98.3149H95.3273V97.4323H92.3191ZM98.3481 102.51V95.6796H100.387V97.3826H101.779V95.6796H103.756V102.51H98.3481ZM100.387 100.82H101.779V99.0173H100.387V100.82ZM101.518 94.9772V86.6112H103.756V89.7003H105.427V91.5711H103.756V94.9772H101.518ZM120.754 94.797V96.5808H106.16V94.797H120.754ZM107.621 90.3778C107.615 88.3391 109.927 87.1022 113.445 87.1022C116.95 87.1022 119.256 88.3391 119.262 90.3778C119.256 92.4289 116.95 93.6906 113.445 93.6906C109.927 93.6906 107.615 92.4289 107.621 90.3778ZM107.919 102.343V97.6561H110.169V100.534H119.088V102.343H107.919ZM109.952 90.3778C109.939 91.3785 111.226 91.8757 113.445 91.8695C115.657 91.8757 116.95 91.3785 116.95 90.3778C116.95 89.4144 115.657 88.886 113.445 88.8798C111.226 88.886 109.939 89.4144 109.952 90.3778ZM138.769 87.2762V88.364C138.769 89.3833 138.769 90.6699 138.458 92.2797H140.497V94.0387H125.865V92.2797H136.195C136.456 90.9744 136.512 89.9302 136.525 89.0414H127.655V87.2762H138.769ZM127.519 96.8978V95.1637H138.7V99.6388H129.762V100.764H139.123V102.498H127.531V97.9606H136.481V96.8978H127.519ZM156.053 98.9986V100.832H141.422V98.9986H147.594V96.5808H143.106V91.1982H152.15V89.4579H143.081V87.6554H154.369V92.9572H145.344V94.7597H154.742V96.5808H149.813V98.9986H156.053ZM174.608 86.6112V94.7659H172.371V90.7818H169.369V89.0041H172.371V86.6112H174.608ZM160.997 93.1064C163.657 92.3294 164.838 90.3715 164.844 88.3018V87.1457H167.119V88.3018C167.106 90.2224 168.219 92.0684 170.773 92.8204L169.592 94.5483C167.883 94.0014 166.69 92.9323 165.994 91.5587C165.298 93.0939 164.03 94.2935 162.165 94.884L160.997 93.1064ZM163.967 97.1526V95.4185H174.608V99.7072H166.199V100.677H175.068V102.442H163.992V98.0663H172.383V97.1526H163.967ZM190.165 86.6112V95.9965H187.927V93.9517H184.95V95.114H177.349V87.7921H184.95V88.9669H187.927V86.6112H190.165ZM179.201 99.5207C179.195 97.5566 181.289 96.4068 184.695 96.4068C188.114 96.4068 190.202 97.5566 190.209 99.5207C190.202 101.497 188.114 102.622 184.695 102.616C181.289 102.622 179.195 101.497 179.201 99.5207ZM179.574 93.3363H182.75V89.5635H179.574V93.3363ZM181.432 99.5207C181.426 100.434 182.576 100.907 184.695 100.913C186.821 100.907 187.977 100.434 187.983 99.5207C187.977 98.5698 186.821 98.1222 184.695 98.116C182.576 98.1222 181.426 98.5698 181.432 99.5207ZM184.95 92.1367H187.927V90.732H184.95V92.1367ZM204.858 86.6112V92.8826H207.22V94.7286H204.858V102.622H202.639V86.6112H204.858ZM192.153 90.8004V89.0041H195.777V86.866H198.014V89.0041H201.557V90.8004H192.153ZM192.8 95.5117C192.793 93.2804 194.534 91.6954 196.896 91.6954C199.226 91.6954 200.973 93.2804 200.979 95.5117C200.973 97.7493 199.226 99.3218 196.896 99.328C194.534 99.3218 192.793 97.7493 192.8 95.5117ZM194.95 95.5117C194.944 96.7548 195.764 97.4945 196.896 97.4883C198.014 97.4945 198.822 96.7548 198.835 95.5117C198.822 94.2873 198.014 93.529 196.896 93.5166C195.764 93.529 194.944 94.2873 194.95 95.5117ZM216.064 87.9164V89.1347H219.041V86.636H221.278V98.2714H219.041V94.3619H216.064V95.7106H208.462V87.9164H216.064ZM210.625 102.343V97.1775H212.894V100.534H221.62V102.343H210.625ZM210.687 93.9641H213.863V89.6941H210.687V93.9641ZM216.064 92.5843H219.041V90.9434H216.064V92.5843ZM104.214 117.891C104.214 114.796 105.035 112.229 106.725 110.016H109.205C107.919 111.657 106.924 114.945 106.924 117.891C106.924 120.831 107.919 124.119 109.205 125.76H106.725C105.035 123.547 104.214 120.98 104.214 117.891ZM111.264 116.946V114.771H119.81V116.946H111.264ZM111.264 121.055V118.879H119.81V121.055H111.264ZM139.864 108.611V124.622H137.745V116.592H136.203V123.839H134.146V108.891H136.203V114.796H137.745V108.611H139.864ZM126.489 120.992V110.47H132.462V112.272H128.739V119.115C130.286 119.09 131.66 119.003 133.201 118.724L133.369 120.551C131.417 120.93 129.714 120.986 127.607 120.992H126.489ZM146.589 113.49C146.583 115.921 147.459 118.345 149.734 119.569L148.503 121.21C147.055 120.47 146.104 119.177 145.545 117.617C144.985 119.308 144.034 120.75 142.58 121.595L141.293 119.911C143.605 118.568 144.463 115.964 144.475 113.49V113.124H141.896V111.327H144.475V109.171H146.57V111.327H149.106V113.124H146.589V113.49ZM148.167 116.517V114.69H150.051V108.878H152.152V123.876H150.051V116.517H148.167ZM153.301 124.622V108.611H155.421V124.622H153.301ZM163.88 109.686V111.464H159.939V112.894H163.289V114.597H159.939V116.126C161.673 116.113 162.947 116.039 164.433 115.784L164.65 117.549C162.817 117.847 161.288 117.891 158.87 117.891H157.782V109.686H163.88ZM159.79 121.017V119.221H170.897V124.622H168.665V121.017H159.79ZM163.973 114.485V112.689H165.589V108.941H167.714V118.488H165.589V114.485H163.973ZM168.771 118.599V108.636H170.897V118.599H168.771ZM181.127 110.724C181.121 113.074 183.197 115.579 186.82 116.194L185.832 118.059C183.041 117.506 180.971 115.933 179.94 113.882C178.889 115.921 176.813 117.499 174.041 118.059L173.078 116.194C176.633 115.56 178.721 113.049 178.734 110.724V109.575H181.127V110.724ZM172.711 122.658V120.812H187.342V122.658H172.711ZM201.308 116.884V118.649H189.996V109.798H201.183V111.613H192.27V113.304H200.804V115.063H192.27V116.884H201.308ZM188.268 122.758V120.93H202.899V122.758H188.268ZM208.778 117.885C208.778 120.98 207.958 123.547 206.267 125.76H203.787C205.074 124.119 206.068 120.831 206.068 117.885C206.068 114.945 205.074 111.657 203.787 110.016H206.267C207.958 112.229 208.778 114.796 208.778 117.885Z" fill="#4D5256"/>
<defs>
<clipPath id="clip0_5676_6707">
<rect width="50" height="50" fill="white" transform="translate(136.75 25)"/>
</clipPath>
<clipPath id="clip1_5676_6707">
<rect width="25" height="25" fill="white" transform="matrix(-1 0 0 1 151.25 41.5)"/>
</clipPath>
</defs>
</svg>
