<svg width="313" height="153" viewBox="0 0 313 153" fill="none" xmlns="http://www.w3.org/2000/svg">
<rect x="0.5" y="1" width="312" height="151" rx="7.5" fill="#F2F6FE"/>
<rect x="0.5" y="1" width="312" height="151" rx="7.5" stroke="#4C80F1"/>
<g clip-path="url(#clip0_5676_6733)">
<path d="M164.214 60.7154C164.214 61.4731 163.913 62.2 163.377 62.7357C162.842 63.2714 162.115 63.5725 161.357 63.5725H135.643C134.885 63.5725 134.158 63.2714 133.623 62.7357C133.087 62.2 132.786 61.4731 132.786 60.7154V29.2868C132.786 28.5291 133.087 27.8023 133.623 27.2665C134.158 26.7307 134.885 26.4297 135.643 26.4297H154.214L164.214 36.4297V60.7154Z" fill="#F2F6FE"/>
<path d="M164.214 60.7154C164.214 61.4731 163.913 62.2 163.377 62.7357C162.842 63.2714 162.115 63.5725 161.357 63.5725H135.643C134.885 63.5725 134.158 63.2714 133.623 62.7357C133.087 62.2 132.786 61.4731 132.786 60.7154V29.2868C132.786 28.5291 133.087 27.8023 133.623 27.2665C134.158 26.7307 134.885 26.4297 135.643 26.4297H154.214L164.214 36.4297V60.7154Z" stroke="#87B1F3" stroke-width="2.85714" stroke-linecap="round" stroke-linejoin="round"/>
<path d="M141.357 37.8578H147.072" stroke="#87B1F3" stroke-width="2.85714" stroke-linecap="round" stroke-linejoin="round"/>
<path d="M141.357 46.4297H155.643" stroke="#87B1F3" stroke-width="2.85714" stroke-linecap="round" stroke-linejoin="round"/>
<path d="M141.357 55.0016H155.643" stroke="#87B1F3" stroke-width="2.85714" stroke-linecap="round" stroke-linejoin="round"/>
</g>
<g clip-path="url(#clip1_5676_6733)">
<path d="M180.275 57.4994C181.646 55.2355 182.386 52.6459 182.418 49.9994C182.386 47.353 181.646 44.7634 180.275 42.4994" stroke="#2C5AE9" stroke-width="2.14286" stroke-linecap="round" stroke-linejoin="round"/>
<path d="M176 46.7852C176.745 47.6858 177.127 48.832 177.071 49.9994C177.127 51.1669 176.745 52.3131 176 53.2137" stroke="#2C5AE9" stroke-width="2.14286" stroke-linecap="round" stroke-linejoin="round"/>
<path d="M159.928 45.7014H156.714C155.547 45.7014 154.571 46.6801 154.571 47.8508V52.1495C154.571 53.3202 155.547 54.2989 156.714 54.2989H159.928L167.236 61.4132C168.618 62.3729 170.605 61.3624 170.643 59.6723V40.3279C170.683 38.6367 168.815 37.6246 167.428 38.5869L159.928 45.7014Z" fill="#D7E0FF"/>
<path d="M159.928 45.7014H156.714C155.547 45.7014 154.571 46.6801 154.571 47.8508V52.1495C154.571 53.3202 155.547 54.2989 156.714 54.2989H159.928L167.236 61.4132C168.618 62.3729 170.605 61.3624 170.643 59.6723V40.3279C170.683 38.6367 168.815 37.6246 167.428 38.5869L159.928 45.7014Z" stroke="#2C5AE9" stroke-width="2.14286" stroke-linecap="round" stroke-linejoin="round"/>
</g>
<path d="M106.681 87.6865V89.4641H102.741V90.8936H106.091V92.5967H102.741V94.1257C104.475 94.1133 105.749 94.0387 107.234 93.7838L107.452 95.549C105.618 95.8474 104.089 95.8909 101.672 95.8909H100.584V87.6865H106.681ZM102.591 99.0173V97.221H113.699V102.622H111.467V99.0173H102.591ZM106.775 92.4848V90.6885H108.391V86.9406H110.516V96.4876H108.391V92.4848H106.775ZM111.573 96.5994V86.636H113.699V96.5994H111.573ZM123.929 88.7244C123.922 91.0739 125.998 93.5787 129.622 94.1941L128.634 96.0587C125.843 95.5055 123.773 93.933 122.741 91.8819C121.691 93.9206 119.615 95.4993 116.843 96.0587L115.879 94.1941C119.435 93.5601 121.523 91.049 121.536 88.7244V87.5746H123.929V88.7244ZM115.513 100.658V98.8122H130.144V100.658H115.513ZM144.109 94.884V96.6492H132.797V87.7983H143.985V89.6133H135.072V91.3039H143.606V93.0628H135.072V94.884H144.109ZM131.069 100.758V98.9302H145.701V100.758H131.069ZM163.466 86.6112V90.3218H165.617V92.1492H163.466V95.9655H161.216V86.6112H163.466ZM151.415 94.9834V87.5249H153.665V93.1436C155.61 93.1064 157.692 92.9385 159.905 92.5035L160.166 94.3059C157.543 94.8218 155.051 94.9896 152.782 94.9834H151.415ZM152.708 99.3902C152.708 97.4137 154.87 96.1519 158.183 96.1581C161.478 96.1519 163.616 97.4137 163.616 99.3902C163.616 101.416 161.478 102.635 158.183 102.641C154.87 102.635 152.708 101.416 152.708 99.3902ZM154.92 99.3902C154.908 100.347 156.114 100.857 158.183 100.863C160.197 100.857 161.403 100.347 161.403 99.3902C161.403 98.4268 160.197 97.9606 158.183 97.9606C156.114 97.9606 154.908 98.4268 154.92 99.3902ZM180.925 94.3681V96.1519H166.331V94.3681H172.491V92.9448H168.096V87.2638H179.197V89.029H170.34V91.1423H179.353V92.9448H174.741V94.3681H180.925ZM167.947 99.0235V97.2583H179.185V102.666H176.972V99.0235H167.947ZM195.326 86.6112V102.622H193.057V86.6112H195.326ZM181.937 98.0912C186.065 96.1333 187.886 93.6098 188.246 90.0546H182.795V88.2956H190.533C190.527 93.1436 188.824 97.1775 183.106 99.875L181.937 98.0912ZM212.076 98.9986V100.832H197.444V98.9986H203.616V96.5808H199.129V91.1982H208.172V89.4579H199.104V87.6554H210.391V92.9572H201.366V94.7597H210.764V96.5808H205.835V98.9986H212.076ZM120.279 114.87V116.629H105.66V114.87H120.279ZM107.345 119.258V117.561H118.47V121.744H109.557V122.745H118.887V124.479H107.357V120.147H116.258V119.258H107.345ZM107.481 113.981V108.947H118.414V110.724H109.719V112.216H118.539V113.981H107.481ZM128.501 108.847C132.187 108.847 134.313 109.811 134.319 111.57C134.313 113.36 132.187 114.317 128.501 114.317C124.809 114.317 122.671 113.36 122.678 111.57C122.671 109.811 124.809 108.847 128.501 108.847ZM121.217 116.853V115.075H135.811V116.853H121.217ZM122.901 119.42V117.773H134.027V121.856H125.114V122.82H134.443V124.51H122.914V120.29H131.814V119.42H122.901ZM125.027 111.57C125.015 112.359 126.158 112.664 128.501 112.67C130.876 112.664 132.007 112.359 132.007 111.57C132.007 110.867 130.876 110.482 128.501 110.488C126.158 110.482 125.015 110.867 125.027 111.57ZM149.406 109.867C149.406 111.756 151.333 113.845 154.994 114.298L154.117 116.107C151.32 115.709 149.269 114.41 148.225 112.676C147.181 114.41 145.142 115.709 142.37 116.107L141.488 114.298C145.124 113.845 147.044 111.756 147.05 109.867V109.09H149.406V109.867ZM140.922 119.146V117.319H155.516V119.146H149.282V124.622H147.063V119.146H140.922ZM166.445 118.879C166.445 120.172 166.985 121.502 168.284 122.378C169.608 121.446 170.186 120.073 170.193 118.879V118.332H172.399V118.879C172.387 120.557 173.276 122.099 175.401 122.758L174.313 124.38C172.784 123.87 171.784 122.894 171.224 121.657C170.702 122.894 169.77 123.963 168.34 124.523C166.836 123.982 165.898 122.944 165.376 121.713C164.804 122.907 163.822 123.87 162.355 124.38L161.255 122.758C163.356 122.03 164.251 120.445 164.263 118.879V118.332H166.445V118.879ZM160.869 113.291C160.863 111.029 162.747 109.444 165.245 109.444C167.738 109.444 169.615 111.029 169.615 113.291C169.615 115.523 167.738 117.12 165.245 117.114C162.747 117.12 160.863 115.523 160.869 113.291ZM163.063 113.291C163.051 114.503 163.965 115.256 165.245 115.256C166.494 115.256 167.402 114.503 167.402 113.291C167.402 112.061 166.494 111.327 165.245 111.327C163.965 111.327 163.051 112.061 163.063 113.291ZM171.765 117.673V108.636H174.015V117.673H171.765ZM180.59 109.742C182.747 109.742 184.363 111.52 184.674 114.398H187.459V108.611H189.677V124.66H187.459V116.194H184.699C184.469 119.265 182.816 121.154 180.59 121.154C178.16 121.154 176.426 118.954 176.432 115.436C176.426 111.955 178.16 109.742 180.59 109.742ZM178.583 115.436C178.577 117.829 179.397 119.122 180.59 119.122C181.796 119.122 182.598 117.829 182.604 115.436C182.598 113.068 181.796 111.769 180.59 111.769C179.397 111.769 178.577 113.068 178.583 115.436ZM206.372 120.918V122.745H191.74V120.918H195.003V116.99C193.767 116.244 193.021 115.106 193.027 113.695C193.021 111.11 195.557 109.401 199.025 109.401C202.493 109.401 205.054 111.11 205.054 113.695C205.054 115.088 204.327 116.206 203.121 116.952V120.918H206.372ZM195.233 113.695C195.233 115.268 196.738 116.231 199.025 116.238C201.293 116.231 202.835 115.268 202.841 113.695C202.835 112.092 201.293 111.16 199.025 111.172C196.738 111.16 195.233 112.092 195.233 113.695ZM197.222 120.918H200.852V117.804C200.28 117.91 199.671 117.972 199.025 117.972C198.391 117.972 197.788 117.916 197.222 117.804V120.918Z" fill="#4D5256"/>
<defs>
<clipPath id="clip0_5676_6733">
<rect width="40" height="40" fill="white" transform="translate(128.5 25)"/>
</clipPath>
<clipPath id="clip1_5676_6733">
<rect width="30" height="30" fill="white" transform="translate(153.5 35)"/>
</clipPath>
</defs>
</svg>
